<?xml version="1.0" encoding="utf-8"?>
<!-- Generator: Adobe Illustrator 17.1.0, SVG Export Plug-In . SVG Version: 6.00 Build 0)  -->
<!DOCTYPE svg PUBLIC "-//W3C//DTD SVG 1.1//EN" "http://www.w3.org/Graphics/SVG/1.1/DTD/svg11.dtd">
<svg version="1.1" id="Layer_1" xmlns="http://www.w3.org/2000/svg" xmlns:xlink="http://www.w3.org/1999/xlink" x="0px" y="0px"
	 viewBox="0 0 800 800" enable-background="new 0 0 800 800" xml:space="preserve">
<g>
	<linearGradient id="SVGID_1_" gradientUnits="userSpaceOnUse" x1="400" y1="756.1967" x2="400" y2="132.1967">
		<stop  offset="0" style="stop-color:#FFFFFF;stop-opacity:0"/>
		<stop  offset="1" style="stop-color:#FFFFFF"/>
	</linearGradient>
	<path fill="url(#SVGID_1_)" d="M800,185.3v-1.1H686.3v-52h-1.1v52H572v-52h-1.1v52H457.7v-52h-1.1v52H343.4v-52h-1.1v52H229.1v-52
		H228v52H114.9v-52h-1.1v52H0v1.1h113.7v113.1H0v1.1h113.7v113.1H0v1.1h113.7v113.1H0v1.1h113.7v113.1H0v1.1h113.7v113.7h1.1V642.5
		H228v113.7h1.1V642.5h113.1v113.7h1.1V642.5h113.1v113.7h1.1V642.5h113.1v113.7h1.1V642.5h113.1v113.7h1.1V642.5H800v-1.1H686.3
		V528.2H800v-1.1H686.3V413.9H800v-1.1H686.3V299.6H800v-1.1H686.3V185.3H800z M570.9,185.3v113.1H457.7V185.3H570.9z M342.3,412.8
		H229.1V299.6h113.1V412.8z M343.4,299.6h113.1v113.1H343.4V299.6z M342.3,413.9v113.1H229.1V413.9H342.3z M343.4,413.9h113.1v113.1
		H343.4V413.9z M457.7,413.9h113.1v113.1H457.7V413.9z M457.7,412.8V299.6h113.1v113.1H457.7z M456.6,185.3v113.1H343.4V185.3H456.6
		z M342.3,185.3v113.1H229.1V185.3H342.3z M114.9,185.3H228v113.1H114.9V185.3z M114.9,299.6H228v113.1H114.9V299.6z M114.9,413.9
		H228v113.1H114.9V413.9z M114.9,641.3V528.2H228v113.1H114.9z M229.1,641.3V528.2h113.1v113.1H229.1z M343.4,641.3V528.2h113.1
		v113.1H343.4z M457.7,641.3V528.2h113.1v113.1H457.7z M685.1,641.3H572V528.2h113.1V641.3z M685.1,527.1H572V413.9h113.1V527.1z
		 M685.1,412.8H572V299.6h113.1V412.8z M685.1,298.5H572V185.3h113.1V298.5z"/>
	<g>
		<path fill="#FFFFFF" d="M178.4,73.4c0,3.1-1.2,5.8-3.6,8c-2.4,2.2-5.3,3.3-8.6,3.3c-2,0-4.3-0.6-7.1-1.8c-0.7-0.3-1.3-0.5-1.6-0.5
			c-0.4,0-0.7,0.5-0.8,1.5c0,0.5-0.3,0.8-0.7,0.8c-0.4,0-0.5-0.2-0.5-0.7c0-0.3,0-0.5,0.1-0.7c0.3-2.2,0.4-4.3,0.4-6.2
			c0-0.4,0-1.4-0.1-3.1c0-0.2-0.1-0.5-0.1-0.9c0-0.5,0.2-0.8,0.7-0.8c0.4,0,0.6,0.4,0.8,1.3c0.9,6.6,4,9.9,9.3,9.9
			c2.2,0,4-0.6,5.2-1.9c1.2-1.3,1.8-3,1.8-5.3c0-2-0.6-3.8-1.8-5.2c-1.2-1.4-3.2-2.9-6.1-4.3c-3.5-1.7-5.9-3.4-7.2-5
			c-1.4-1.6-2-3.6-2-6c0-3,1-5.5,2.9-7.5c2-2,4.4-3,7.4-3c1.2,0,3,0.4,5.2,1.3c0.8,0.3,1.3,0.4,1.7,0.4c0.4,0,0.7-0.1,0.8-0.2
			c0.1-0.1,0.2-0.5,0.4-1.2c0.1-0.4,0.3-0.5,0.6-0.5c0.4,0,0.5,0.2,0.5,0.7c0,0.3,0,0.5-0.1,0.7c-0.1,0.9-0.2,1.9-0.2,3.2
			c0,1.8,0.1,3.1,0.3,4.2l0.1,0.9c0,0.4-0.1,0.6-0.5,0.6c-0.4,0-0.7-0.4-0.8-1.3c-0.4-2.2-1.4-4-2.9-5.4c-1.5-1.4-3.2-2.2-5-2.2
			c-1.8,0-3.3,0.6-4.4,1.8c-1.1,1.2-1.6,2.8-1.6,4.8c0,2.3,0.8,4.2,2.4,5.7c0.9,0.8,2.8,1.9,5.7,3.4c3.4,1.7,5.9,3.5,7.4,5.2
			C177.6,69.1,178.4,71.2,178.4,73.4z"/>
		<path fill="#FFFFFF" d="M213.1,78.1c0,0.4-0.3,1-0.9,1.9c-0.6,0.9-1.1,1.7-1.7,2.3c-1.6,1.6-3.7,2.4-6.3,2.4c-3.3,0-6-1.2-8.3-3.6
			c-2.2-2.4-3.3-5.3-3.3-8.8c0-3.7,1.1-6.7,3.2-9.2c2.1-2.4,4.7-3.7,7.9-3.7c2.6,0,4.8,0.8,6.5,2.3c1.8,1.5,2.7,3.5,2.8,5.8
			c-1.2,0.2-2.7,0.3-4.7,0.2h-3.8c-0.3,0-2.4,0.1-6.6,0.2c-0.2,1.2-0.3,2.4-0.3,3.4c0,3.7,0.7,6.5,2.1,8.5c1.4,2,3.4,3,6,3
			c1.5,0,2.6-0.3,3.5-1c0.9-0.7,1.8-1.9,2.9-3.8c0.1-0.3,0.3-0.4,0.6-0.4C212.9,77.8,213.1,77.9,213.1,78.1z M208.3,67
			c-0.1-4.4-1.7-6.6-4.7-6.6c-3,0-4.8,2.2-5.5,6.6H208.3z"/>
		<path fill="#FFFFFF" d="M250.7,71.9c0,3.7-1,6.7-3.1,9.2c-2.1,2.5-4.7,3.7-7.7,3.7c-2.4,0-4.3-0.9-5.6-2.6v12.8
			c0,0.8,0,1.3,0.1,1.4c0.1,0.1,0.2,0.3,0.5,0.4c0.6,0.1,1.6,0.2,3.2,0.2c0.4,0,0.7,0.2,0.7,0.5c0,0.3-0.2,0.4-0.7,0.4h-1
			c-0.3,0-0.7,0-1.3,0c-0.5,0-1,0-1.4,0c-0.2,0-0.8,0-1.8,0c-1,0-1.8,0-2.3,0h-2.9c-1.1,0-1.6-0.1-1.6-0.4c0-0.3,0.2-0.5,0.7-0.5
			h1.6c1.1,0,1.6-0.2,1.7-0.7c0-0.2,0.1-1.9,0.1-5V63.8c0-1-0.5-1.5-1.5-1.4c-1.5,0-2.2,0-2.3,0c-0.3,0-0.5-0.1-0.5-0.4
			c0-0.3,0.4-0.5,1.2-0.5c2,0,3.8-0.4,5.5-1.4c0.5-0.3,0.8-0.4,1.1-0.4c0.3,0,0.5,0.1,0.6,0.4c0.1,0.3,0.2,1.1,0.2,2.5
			c1.4-1.9,3.3-2.9,5.8-2.9c3.2,0,5.8,1.2,7.8,3.5C249.7,65.4,250.7,68.3,250.7,71.9z M245.8,72c0-2.9-0.4-5.3-1.3-7.3
			c-1.2-2.8-3-4.2-5.5-4.2c-1.3,0-2.4,0.4-3.3,1.3c-0.9,0.9-1.4,2-1.5,3.3c-0.1,1.6-0.1,5,0.1,10.2c0,2.6,0.1,4.2,0.2,4.7
			c0.1,0.5,0.3,1.1,0.7,1.6c1.1,1.5,2.4,2.3,4.1,2.3c1.9,0,3.3-0.8,4.3-2.4C245.1,79,245.8,75.8,245.8,72z"/>
		<path fill="#FFFFFF" d="M279.9,80.9c0,0.3-0.5,0.9-1.4,1.8c-1.6,1.4-3.4,2.1-5.6,2.1c-2,0-3.5-0.5-4.6-1.5
			c-0.6-0.6-0.9-2.3-0.9-5.1V61.8c0-0.4-0.2-0.6-0.6-0.6h-2.1c-0.8,0-1.2-0.1-1.2-0.4c0-0.3,0.2-0.4,0.6-0.4
			c2.8-0.3,5.1-1.7,6.6-4.2c0.2-0.3,0.5-0.5,0.8-0.5c0.3,0,0.4,0.1,0.4,0.4v0.2c0,0.2,0,0.5,0,0.9c0,1.5,0.1,2.5,0.2,3
			c0.3,0.1,0.9,0.1,1.6,0.1c2,0,3.3-0.1,4-0.3c0.1,0,0.3-0.1,0.4-0.1c0.3,0,0.4,0.2,0.4,0.5c0,0.5-1.5,0.8-4.4,0.8
			c-0.5,0-1.3,0-2.2,0v10.1c0,5.1,0.1,8.3,0.4,9.6c0.3,1.3,1.1,1.9,2.5,1.9c1.2,0,2.6-0.7,4.1-2c0.1-0.2,0.3-0.3,0.5-0.3
			C279.8,80.6,279.9,80.7,279.9,80.9z"/>
		<path fill="#FFFFFF" d="M312,78.1c0,0.4-0.3,1-0.9,1.9c-0.6,0.9-1.1,1.7-1.7,2.3c-1.6,1.6-3.7,2.4-6.3,2.4c-3.3,0-6-1.2-8.3-3.6
			c-2.2-2.4-3.3-5.3-3.3-8.8c0-3.7,1.1-6.7,3.2-9.2c2.1-2.4,4.7-3.7,7.9-3.7c2.6,0,4.8,0.8,6.5,2.3c1.8,1.5,2.7,3.5,2.8,5.8
			c-1.2,0.2-2.7,0.3-4.7,0.2h-3.8c-0.3,0-2.4,0.1-6.6,0.2c-0.2,1.2-0.3,2.4-0.3,3.4c0,3.7,0.7,6.5,2.1,8.5c1.4,2,3.4,3,6,3
			c1.5,0,2.6-0.3,3.5-1c0.9-0.7,1.8-1.9,2.9-3.8c0.1-0.3,0.3-0.4,0.6-0.4C311.9,77.8,312,77.9,312,78.1z M307.2,67
			c-0.1-4.4-1.7-6.6-4.7-6.6c-3,0-4.8,2.2-5.5,6.6H307.2z"/>
		<path fill="#FFFFFF" d="M363,83.8c0,0.3-0.3,0.4-0.9,0.4c-0.1,0-0.5,0-1.2,0c-0.7,0-1.7,0-2.9,0c-0.1,0-2,0-5.8,0
			c-0.5,0-0.7-0.1-0.7-0.4c0-0.3,0.2-0.4,0.6-0.4h0.4h1.4c0.5,0,0.9-0.2,1-0.4c0.1-0.2,0.1-1,0.1-2.3V67.1c0-2.1-0.3-3.6-0.8-4.5
			c-0.6-0.9-1.5-1.3-2.9-1.3c-0.9,0-1.8,0.3-2.6,0.9c-0.8,0.6-1.4,1.3-1.7,2.2c-0.1,0.5-0.2,2.6-0.2,6.1v10.4c0,1.2,0,1.9,0.1,2.1
			c0.1,0.4,0.4,0.7,1,0.7h1.6c0.5,0,0.7,0.1,0.7,0.4c0,0.2-0.3,0.4-0.8,0.4h-0.4c-0.4,0-1.6,0-3.7,0c-0.7,0-1.7,0-2.9,0
			c-1.2,0-2,0-2.2,0h-0.6c-0.4,0-0.7-0.1-0.7-0.4c0-0.2,0.1-0.3,0.3-0.3c0.2,0,0.9-0.1,2.2-0.1c0.6,0,0.9-0.2,0.9-0.5l0.1-0.8V66.8
			c0-2.1-0.3-3.6-0.8-4.4c-0.5-0.8-1.5-1.2-2.8-1.2c-1.3,0-2.5,0.4-3.4,1.3c-0.9,0.8-1.3,1.9-1.3,3.2v15.5c0,1.1,0.1,1.7,0.2,1.9
			c0.2,0.2,0.7,0.3,1.6,0.3h0.4c0.2,0,0.4-0.1,0.6-0.1c0.4,0,0.6,0.1,0.6,0.4c0,0.3-0.2,0.4-0.7,0.4H336c-0.9,0-2.2,0-4.1,0h-5.4
			c-0.5,0-0.8-0.1-0.8-0.4c0-0.3,0.2-0.4,0.7-0.4c1.4,0,2.2-0.1,2.4-0.2c0.2-0.1,0.3-0.4,0.4-0.7V68.3c0-2.7-0.1-4.3-0.2-4.8
			c-0.1-0.5-0.6-0.7-1.6-0.7h-0.8c-0.3,0-0.7,0-1,0c-0.5,0-0.7-0.1-0.7-0.4c0-0.2,0.1-0.3,0.2-0.4c0.2,0,0.8-0.1,1.8-0.2
			c0.8,0,1.9-0.3,3.2-0.7c1.3-0.4,2-0.7,2.2-1c0.4-0.4,0.7-0.6,0.9-0.6c0.2,0,0.3,0.1,0.3,0.4c0,0.3,0.1,1.3,0.1,3.1
			c1.5-2.3,3.7-3.5,6.8-3.5c3.3,0,5.2,1.2,5.9,3.7c1.4-2.4,3.7-3.7,6.9-3.7c2.7,0,4.5,1,5.5,2.9c0.5,1,0.8,2.7,0.8,5.1v13.5
			c0,1.2,0.1,1.9,0.2,2.1c0.1,0.1,0.7,0.2,1.7,0.3h1C362.8,83.4,363,83.5,363,83.8z"/>
		<path fill="#FFFFFF" d="M398.7,71.1c0,3.8-1.2,7-3.5,9.7c-2.3,2.7-5.1,4-8.3,4c-1.1,0-2.3-0.2-3.6-0.7c-1.2-0.5-2.1-0.7-2.5-0.7
			c-0.4,0-0.9,0.2-1.4,0.5c-0.5,0.3-0.9,0.5-1.2,0.5c-0.3,0-0.4-0.6-0.4-1.8V54.1c0-3.7-0.2-5.7-0.7-6c-0.2-0.1-0.9-0.2-2.1-0.2
			c-0.9,0-1.3-0.1-1.3-0.4c0-0.3,0.2-0.4,0.6-0.4h0.8c2,0,3.9-0.4,5.8-1.3c0.5-0.3,0.9-0.4,1.2-0.4h0.2v17.2
			c1.4-2.1,3.5-3.1,6.3-3.1c3.1,0,5.5,1.1,7.4,3.2C397.7,64.8,398.7,67.6,398.7,71.1z M393.7,71.3c0-3.4-0.5-6.1-1.6-7.9
			c-1.1-1.9-2.6-2.8-4.5-2.8c-1,0-2,0.3-2.9,1c-0.9,0.6-1.5,1.4-1.9,2.4c-0.3,0.9-0.5,3.8-0.5,8.6c0,5,0.1,8,0.4,9
			c0.4,1.5,1.7,2.3,4,2.3c2.2,0,3.8-0.8,4.8-2.5C392.9,78.9,393.7,75.6,393.7,71.3z"/>
		<path fill="#FFFFFF" d="M433.5,78.1c0,0.4-0.3,1-0.9,1.9c-0.6,0.9-1.1,1.7-1.7,2.3c-1.6,1.6-3.7,2.4-6.3,2.4c-3.3,0-6-1.2-8.3-3.6
			c-2.2-2.4-3.3-5.3-3.3-8.8c0-3.7,1.1-6.7,3.2-9.2c2.1-2.4,4.7-3.7,7.9-3.7c2.6,0,4.8,0.8,6.5,2.3c1.8,1.5,2.7,3.5,2.8,5.8
			c-1.2,0.2-2.7,0.3-4.7,0.2h-3.8c-0.3,0-2.4,0.1-6.6,0.2c-0.2,1.2-0.3,2.4-0.3,3.4c0,3.7,0.7,6.5,2.1,8.5c1.4,2,3.4,3,6,3
			c1.5,0,2.6-0.3,3.5-1c0.9-0.7,1.8-1.9,2.9-3.8c0.1-0.3,0.3-0.4,0.6-0.4C433.3,77.8,433.5,77.9,433.5,78.1z M428.7,67
			c-0.1-4.4-1.7-6.6-4.7-6.6c-3,0-4.8,2.2-5.5,6.6H428.7z"/>
		<path fill="#FFFFFF" d="M464.3,63.4c0,0.8-0.3,1.5-0.8,2.1c-0.5,0.5-1.2,0.8-2,0.8c-0.7,0-1.2-0.2-1.6-0.6
			c-0.4-0.4-0.7-0.9-0.7-1.5c0-0.5,0.2-1,0.5-1.3c0.3-0.4,0.5-0.6,0.5-0.8c0-0.5-0.4-0.8-1.2-0.8c-1,0-1.9,0.6-2.6,1.9
			c-0.8,1.5-1.3,4.3-1.3,8.3v10.8c0,0.4,0.2,0.7,0.5,0.8c0.3,0.1,1.3,0.2,2.8,0.2c0.4,0.1,0.6,0.2,0.6,0.4c0,0.3-0.2,0.4-0.7,0.4
			c-0.8,0-1.6,0-2.4,0c-0.7,0-2.1,0-4.2,0c-1.1,0-1.8,0-2.3,0c-0.5,0-1.1,0-1.8,0c-0.6,0-0.9-0.1-0.9-0.3s0.2-0.3,0.7-0.3h0.8
			c1.2,0,2-0.1,2.2-0.4c0.1-0.1,0.1-0.8,0.1-2V65.9c0-2-0.3-3.2-0.9-3.5c-0.6-0.3-1.6-0.5-2.9-0.5c-0.4,0-0.7-0.1-0.7-0.4
			c0-0.3,0.2-0.4,0.5-0.4h0.4c0.5,0,1.1,0,1.6,0.1c0.5,0.1,0.8,0.1,0.7,0.1c1.4,0,2.9-0.4,4.5-1.2l0.7-0.3l0.4-0.2
			c0.1,0.9,0.2,1.8,0.2,2.6v1.1c1.2-2.5,2.8-3.7,4.9-3.7c1.2,0,2.1,0.4,2.9,1.1C464,61.4,464.3,62.3,464.3,63.4z"/>
		<path fill="#FFFFFF" d="M523.6,73.8c0,0.1,0,0.4-0.1,0.9c-0.2,1.2-0.5,4.2-0.9,8.9l-0.1,0.7c-3.8-0.2-8.1-0.3-12.9-0.3
			c-2.6,0-5,0-7.3,0.1c-2.3,0.1-3.3,0.1-3,0.1c-1,0-1.5-0.2-1.5-0.5c0-0.3,1-1.2,2.9-2.7c4.6-3.7,7.8-6.8,9.8-9.1
			c3.4-4.1,5-8.8,5-14.3c0-3.7-0.8-6.5-2.3-8.4c-1.2-1.5-2.8-2.2-4.9-2.2c-2.1,0-3.7,0.6-4.9,1.9c-1,1-1.4,2-1.4,3
			c0,0.6,0.5,1,1.5,1c2.6,0.1,3.8,1.2,3.8,3.3c0,2-1.1,3-3.2,3c-1.4,0-2.4-0.4-3.2-1.3c-0.8-0.8-1.2-2-1.2-3.5c0-2.7,1-4.9,2.9-6.5
			c1.9-1.6,4.4-2.5,7.5-2.5c3.1,0,5.7,1,7.7,3c2.4,2.3,3.6,5.3,3.6,9c0,4.1-1.4,7.8-4.1,11.2c-2.7,3.4-7.3,7.1-13.7,11.2
			c2.4-0.1,5.4-0.1,9.1-0.1c3,0,5,0,5.8-0.1c0.8-0.1,1.5-0.3,2.1-0.7c0.5-0.3,1-1.6,1.3-3.7c0.3-1.5,0.6-2.2,1.1-2.2
			C523.5,73,523.6,73.3,523.6,73.8z"/>
		<path fill="#FFFFFF" d="M564.1,65.7c0,3.3-0.5,6.3-1.5,9.2c-1,2.9-2.3,5.2-4,7c-1.8,1.9-4.1,2.9-6.9,2.9c-3.8,0-6.9-1.9-9.4-5.6
			c-2.5-3.7-3.7-8.5-3.7-14.3c0-6.7,1.7-12,5.2-15.9c2.1-2.3,4.6-3.5,7.7-3.5c3.6,0,6.4,1.6,8.6,4.9
			C562.7,54.4,564.1,59.5,564.1,65.7z M558.1,63.8c0-5.4-0.6-9.9-1.8-13.5c-0.9-2.7-2.5-4.1-4.8-4.1c-4.6,0-6.9,6.1-6.9,18.4
			c0,12.8,2.4,19.3,7.3,19.3c2.3,0,3.9-1.9,4.9-5.6C557.7,74.9,558.1,70,558.1,63.8z"/>
		<path fill="#FFFFFF" d="M600.2,83.7c0,0.3-0.4,0.5-1.2,0.5h-0.7h-2.1c-1.4,0-2.8,0-4.2,0c-2.5,0-4.1,0-4.8,0c-0.7,0-1.2,0-1.6,0
			c-0.9,0-1.3-0.2-1.3-0.5c0-0.3,0.3-0.5,0.8-0.5c0.8,0,1.7,0,2.6-0.1c1.1,0,1.7-0.3,1.8-0.8c0.1-0.5,0.1-1.7,0.1-3.4V53.1
			c0-1.2,0-1.9-0.1-2.1c-0.1-0.2-0.3-0.3-0.8-0.3c-0.2,0-1.4,0.1-3.6,0.3c-0.4,0-0.7,0.1-0.9,0.1c-0.4,0-0.7-0.1-0.7-0.4
			c0-0.3,0.2-0.5,0.7-0.5c1.7-0.2,3.4-0.7,5.2-1.6c1.7-0.9,3.1-1.9,4.2-3c0.4-0.3,0.7-0.5,0.8-0.5c0.3,0,0.4,0.2,0.4,0.5v1
			c0,0.3,0,0.6,0,1v32.8c0,1.3,0.1,2.1,0.2,2.3c0.1,0.2,0.6,0.3,1.3,0.4h1.3h0.9h0.8C599.9,83.1,600.2,83.3,600.2,83.7z"/>
		<path fill="#FFFFFF" d="M643,71.8c0,4.7-1.8,8.3-5.4,10.8c-2.2,1.5-5,2.2-8.4,2.2s-6-0.9-7.6-2.7c-0.9-1-1.3-2.2-1.3-3.5
			c0-1.1,0.4-2.1,1.1-2.8c0.7-0.7,1.7-1.1,2.9-1.1c0.9,0,1.7,0.3,2.4,0.8c0.6,0.5,1,1.2,1,2c0,1.3-0.9,2.4-2.7,3.1
			c-0.8,0.3-1.2,0.6-1.2,1c0,0.6,0.5,1.1,1.6,1.6c1.1,0.5,2.3,0.7,3.6,0.7c2.6,0,4.5-0.9,5.8-2.6c1.8-2.4,2.6-5.7,2.6-9.7
			c0-3-0.7-5.3-2.1-6.9c-1.4-1.6-3.4-2.5-5.9-2.5c-2,0-4.2,0.8-6.5,2.2c0.2-8.2,0.4-13.4,0.5-15.6c0-1.2,0.3-2,0.8-2.3
			c0.5-0.3,1.9-0.4,4.2-0.4c0.4,0,1,0,1.9,0c0.9,0,1.6,0,2.1,0h1.9c2.5,0,4,0,4.4-0.1c0.4-0.1,0.7-0.4,0.8-0.9
			c0.1-0.8,0.4-1.2,0.8-1.2c0.4,0,0.5,0.2,0.5,0.6c0,0.3,0,0.5-0.1,0.6l-0.1,1.3c-0.2,2-0.6,3.3-1.1,3.8c-0.6,0.5-1.9,0.7-4.1,0.7
			h-10.5c-0.1,1.2-0.3,5-0.4,11.3c2.1-1,4.3-1.5,6.5-1.5c3.8,0,6.7,1,8.9,3C641.9,65.6,643,68.3,643,71.8z"/>
	</g>
	<g>
		<path fill="#FFFFFF" d="M749.9,246.3c0,2.1-0.8,3.8-2.4,5.2c-1.6,1.3-3.6,2-6.1,2c-1.8,0-3.3-0.4-4.3-1.1c-1-0.7-1.6-1.7-1.6-3
			c0-0.8,0.2-1.4,0.7-1.9c0.5-0.5,1.1-0.7,1.9-0.7c1.3,0,2,0.7,2,2c0,0.9-0.7,1.6-2,2.1c-0.5,0.2-0.8,0.4-0.8,0.5
			c0,0.3,0.4,0.6,1.1,0.9c0.7,0.3,1.4,0.5,2.1,0.5c1.3,0,2.3-0.6,3-1.7c0.8-1.2,1.1-2.7,1.1-4.6c0-1.7-0.3-3.1-1-4.1
			c-0.7-1-1.6-1.5-2.9-1.5c-1.2,0-2.4,0.4-3.6,1.3c0-0.6,0.1-1.3,0.1-2.3c0.1-4.6,0.2-7.1,0.4-7.5c0.1-0.3,1.3-0.4,3.5-0.4h5.7
			c0.5,0,0.7-0.3,0.8-0.8c0-0.3,0.1-0.4,0.3-0.4c0.1,0,0.2,0.1,0.2,0.4c0,1.5-0.1,2.7-0.4,3.5c-0.1,0.5-0.4,0.9-0.9,1.1
			c-0.3,0.1-0.8,0.2-1.5,0.2c0,0-0.1,0-0.5,0c-0.4,0-0.8,0-1.2,0h-5.7c-0.1,1.2-0.1,2.8-0.2,5c1.3-0.7,2.8-1,4.5-1
			c2.3,0,4.1,0.6,5.4,1.7C749.2,242.8,749.9,244.3,749.9,246.3z"/>
	</g>
	<linearGradient id="SVGID_2_" gradientUnits="userSpaceOnUse" x1="399.1671" y1="707.5109" x2="399.1671" y2="150.4406">
		<stop  offset="0" style="stop-color:#FFFFFF;stop-opacity:0"/>
		<stop  offset="1" style="stop-color:#FFFFFF"/>
	</linearGradient>
	<path fill="url(#SVGID_2_)" d="M281.7,233.1c0-0.1,0.1-0.2,0.3-0.2c0.9-0.1,1.7-0.4,2.6-0.8c0.9-0.4,1.6-0.9,2.1-1.5
		c0.2-0.2,0.3-0.2,0.4-0.2c0.1,0,0.2,0.1,0.2,0.3v0.5c0,0.1,0,0.3,0,0.5V248c0,0.7,0,1,0.1,1.2c0.1,0.1,0.3,0.2,0.7,0.2h0.6h0.5h0.4
		c0.3,0,0.4,0.1,0.4,0.3c0,0.2-0.2,0.2-0.6,0.2h-0.3h-1c-0.7,0-1.4,0-2.1,0c-1.3,0-2.1,0-2.4,0c-0.3,0-0.6,0-0.8,0
		c-0.4,0-0.7-0.1-0.7-0.2c0-0.2,0.1-0.2,0.4-0.2c0.4,0,0.8,0,1.3,0c0.6,0,0.9-0.2,0.9-0.4c0-0.3,0.1-0.8,0.1-1.7v-12.9
		c0-0.6,0-0.9-0.1-1c0-0.1-0.2-0.2-0.4-0.2c-0.1,0-0.7,0-1.8,0.1c-0.2,0-0.4,0-0.4,0C281.8,233.3,281.7,233.3,281.7,233.1z
		 M394.3,235c0,0.7,0.2,1.3,0.6,1.7c0.4,0.4,0.9,0.6,1.6,0.6c1.1,0,1.6-0.5,1.6-1.5c0-1.1-0.6-1.6-1.9-1.7c-0.5,0-0.7-0.2-0.7-0.5
		c0-0.5,0.2-1,0.7-1.5c0.6-0.6,1.4-1,2.5-1c1.1,0,1.9,0.4,2.5,1.1c0.8,1,1.2,2.4,1.2,4.2c0,2.7-0.8,5.1-2.5,7.2
		c-1,1.2-2.6,2.7-4.9,4.6c-1,0.8-1.4,1.2-1.4,1.4c0,0.2,0.2,0.3,0.7,0.3c-0.1,0,0.3,0,1.5-0.1c1.1,0,2.3-0.1,3.6-0.1
		c2.4,0,4.6,0,6.4,0.1l0-0.3c0.2-2.4,0.3-3.9,0.4-4.5c0-0.2,0.1-0.4,0.1-0.4c0-0.3-0.1-0.4-0.3-0.4c-0.2,0-0.4,0.4-0.5,1.1
		c-0.2,1.1-0.4,1.7-0.7,1.8c-0.3,0.2-0.7,0.3-1.1,0.3c-0.4,0-1.4,0.1-2.9,0.1c-1.8,0-3.3,0-4.6,0.1c3.2-2,5.5-3.9,6.8-5.6
		c1.4-1.7,2-3.6,2-5.6c0-1.8-0.6-3.3-1.8-4.5c-1-1-2.3-1.5-3.9-1.5c-1.6,0-2.8,0.4-3.8,1.2C394.8,232.6,394.3,233.7,394.3,235z
		 M520,244.5c0-1.7-0.7-3.1-2.1-4c-0.9-0.6-2.2-1-3.7-1v-0.2c1.2-0.2,2.1-0.4,2.7-0.7c1.6-0.8,2.3-2,2.3-3.6c0-1.2-0.5-2.2-1.4-3.1
		c-0.9-0.9-2.2-1.3-4-1.3c-1.5,0-2.7,0.3-3.6,1c-0.8,0.7-1.3,1.5-1.3,2.5c0,0.6,0.2,1.1,0.6,1.5c0.4,0.4,0.9,0.5,1.5,0.5
		c1,0,1.5-0.5,1.5-1.4c0-0.7-0.6-1.2-1.8-1.5c-0.3-0.1-0.4-0.2-0.4-0.3c0-0.4,0.3-0.8,0.8-1.1c0.6-0.3,1.2-0.5,2-0.5
		c1,0,1.8,0.4,2.4,1.1c0.6,0.7,0.9,1.6,0.9,2.8c0,1.2-0.3,2.2-1,2.9c-0.7,0.8-1.7,1.2-3,1.4c-0.4,0.1-0.7,0.2-0.7,0.3
		c0,0.2,0.1,0.2,0.4,0.2h0.2c0.1,0,0.3,0,0.6,0c2.8,0,4.2,1.5,4.2,4.6c0,1.5-0.4,2.8-1.3,3.7c-0.9,1-2,1.4-3.4,1.4
		c-0.6,0-1.1-0.1-1.6-0.3s-0.7-0.4-0.7-0.6c0-0.1,0.2-0.3,0.5-0.4c0.9-0.4,1.3-0.9,1.3-1.5c0-0.4-0.2-0.8-0.5-1
		c-0.3-0.3-0.7-0.4-1.2-0.4c-0.6,0-1.1,0.2-1.4,0.5c-0.4,0.3-0.5,0.8-0.5,1.4c0,0.7,0.3,1.2,0.8,1.8c0.8,0.8,2.1,1.2,3.8,1.2
		c2.1,0,3.8-0.6,5.2-1.8C519.4,247.3,520,246,520,244.5z M633.7,249.9c-0.7,0-2.8,0-6.1,0.1c-0.2,0-0.4,0-0.6,0
		c-0.4,0-0.5-0.1-0.5-0.3c0-0.2,0.3-0.3,0.8-0.2c0.6,0,1.2,0,1.7-0.1c0.2,0,0.4-0.1,0.4-0.3c0.1-0.2,0.1-0.5,0.1-1v-3.3
		c-0.4,0-0.8,0-1.3,0H627c-0.3,0-0.5,0-0.9,0c-0.3,0-0.4,0-0.5,0l-3.5-0.1c-0.3,0-0.4-0.1-0.4-0.2c0-0.1,1.3-2,4-5.7
		c0.8-1.2,2.7-3.8,5.6-7.8c0.1-0.2,0.3-0.2,0.4-0.2c0.2,0,0.3,0.2,0.3,0.5V244h0.3c0.6,0,1.1,0,1.4-0.1c0.4-0.1,0.5-0.3,0.5-0.5
		c0-0.6,0-1,0-1.2c0-0.7,0.1-1,0.3-1c0.3,0,0.4,0.3,0.4,0.8v1.2v2c0,0.7,0,1.1,0.1,1.3c0,0.2,0,0.3,0,0.4c0,0.2-0.1,0.3-0.3,0.3
		c-0.2,0-0.3-0.1-0.3-0.3c0-0.2-0.1-0.8-0.2-1.7c0-0.1-0.1-0.3-0.2-0.3c-0.2-0.1-0.7-0.2-1.5-0.2c-0.2,0-0.4,0-0.6,0v4.3
		c0.1,0.2,0.2,0.4,0.5,0.4c0.2,0.1,0.7,0.1,1.6,0.1c0.4,0,0.6,0,0.7,0.1c0,0,0,0.1,0,0.2C634.8,249.8,634.4,249.9,633.7,249.9z
		 M629.6,234.6c-0.2,0.3-0.6,0.9-1.1,1.7c-0.8,1.1-2,2.8-3.6,5l-2,2.7c0.7,0,2.1,0,4.4,0c0.8,0,1.5,0,2.2,0v-1.9
		c0-0.9,0-2.1,0.1-3.7C629.5,236.5,629.6,235.3,629.6,234.6z M61.6,362.6c-1.1,1.3-2.4,1.9-3.9,1.9c-1.9,0-3.4-0.8-4.6-2.3
		c-1.2-1.6-1.8-3.6-1.8-6.1c0-2.3,0.5-4.4,1.5-6.3c1-1.9,2.3-3.3,4-4.1c1.4-0.7,2.9-1.1,4.6-1.1c0.4,0,0.6,0.1,0.6,0.2
		c0,0.1-0.1,0.2-0.4,0.2c-1.6,0.1-3.1,0.7-4.4,1.8c-1.6,1.3-2.6,3.6-2.9,6.9c1-1,2.1-1.4,3.4-1.4c1,0,2,0.3,2.9,0.8
		c1.7,1,2.6,2.7,2.6,4.9C63.2,359.8,62.7,361.3,61.6,362.6z M60.4,358.1c0-3.4-1.1-5.1-3.2-5.1c-1,0-1.7,0.4-2.2,1.2
		c-0.5,0.8-0.8,2-0.8,3.4c0,2.1,0.4,3.8,1.1,5.1c0.5,0.8,1.2,1.2,2.1,1.2C59.4,364,60.4,362.1,60.4,358.1z M46.1,164
		c0.9-0.8,1.3-1.8,1.3-3c0-0.9-0.3-1.6-0.8-2.3c-0.6-0.7-1.5-1.3-2.8-2c-1.1-0.5-1.8-1-2.1-1.3c-0.6-0.5-0.9-1.2-0.9-2.1
		c0-0.8,0.2-1.4,0.6-1.8c0.4-0.4,0.9-0.7,1.6-0.7c0.7,0,1.3,0.3,1.9,0.8c0.6,0.5,0.9,1.2,1.1,2c0.1,0.3,0.2,0.5,0.3,0.5
		c0.1,0,0.2-0.1,0.2-0.2l0-0.3c-0.1-0.4-0.1-0.9-0.1-1.6c0-0.5,0-0.9,0.1-1.2c0-0.1,0-0.1,0-0.2c0-0.2-0.1-0.2-0.2-0.2
		c-0.1,0-0.2,0.1-0.2,0.2c0,0.2-0.1,0.4-0.1,0.4c0,0.1-0.1,0.1-0.3,0.1c-0.1,0-0.3-0.1-0.6-0.2c-0.8-0.3-1.5-0.5-1.9-0.5
		c-1.1,0-2.1,0.4-2.8,1.1c-0.7,0.7-1.1,1.7-1.1,2.8c0,0.9,0.3,1.6,0.8,2.2c0.5,0.6,1.4,1.2,2.7,1.9c1.1,0.5,1.8,1.1,2.3,1.6
		c0.4,0.5,0.7,1.2,0.7,2c0,0.9-0.2,1.5-0.7,2c-0.5,0.5-1.1,0.7-1.9,0.7c-2,0-3.1-1.2-3.5-3.7c-0.1-0.3-0.2-0.5-0.3-0.5
		c-0.2,0-0.2,0.1-0.2,0.3c0,0.1,0,0.2,0,0.3c0,0.6,0,1,0,1.2c0,0.7-0.1,1.5-0.2,2.3c0,0.1,0,0.1,0,0.2c0,0.2,0.1,0.2,0.2,0.2
		c0.2,0,0.3-0.1,0.3-0.3c0-0.4,0.1-0.6,0.3-0.6c0.1,0,0.3,0.1,0.6,0.2c1,0.5,1.9,0.7,2.7,0.7C44.2,165.3,45.2,164.9,46.1,164z
		 M52.9,156.4h0.3c0.3,0,0.5,0.1,0.6,0.1c0.1,0.1,0.1,0.4,0.1,0.8v4.7c0,0.9,0,1.5,0.1,1.7c0,0.2,0.1,0.4,0.3,0.7
		c0.4,0.6,1.2,0.9,2.2,0.9c1.1,0,2-0.4,2.6-1.3v1.2c0,0.1,0,0.2,0.1,0.2c0,0,0.1,0,0.1,0c0.8-0.4,1.7-0.6,2.8-0.7
		c0.3,0,0.5-0.1,0.5-0.2c0-0.1-0.1-0.1-0.2-0.1c-0.6,0-1,0-1.1-0.1c-0.2,0-0.3-0.2-0.3-0.5c0-0.3-0.1-0.9-0.1-1.9v-5.7
		c-0.2,0-0.7,0-1.5,0c-0.6,0-1,0-1.1,0h-0.2c-0.3,0-0.4,0-0.4,0.1c0,0.1,0.3,0.2,0.9,0.2c0.2,0,0.4,0,0.5,0.1c0.1,0,0.1,0.2,0.1,0.4
		v0.7c0,0.2,0.1,0.6,0.1,1v3.2c0,1-0.1,1.7-0.4,2.1c-0.3,0.6-0.9,0.9-1.6,0.9c-0.7,0-1.1-0.3-1.3-0.8c-0.1-0.3-0.2-1-0.2-2.1v-5.7
		c-0.4,0.1-0.9,0.1-1.3,0.1c0,0-0.2,0-0.4,0c-0.5,0-0.8-0.1-1.1-0.1c-0.2,0-0.3,0-0.3,0.1C52.3,156.3,52.5,156.4,52.9,156.4z
		 M76.2,164.8H76c-0.1,0-0.2,0-0.2,0c-0.3,0-0.5,0-0.6-0.1c0,0-0.1-0.3-0.1-0.7v-4.7c0-1.2-0.1-1.9-0.4-2.3
		c-0.4-0.7-1.2-1.1-2.1-1.1c-1.1,0-2,0.5-2.8,1.4v-1c0-0.3,0-0.4-0.1-0.4c-0.1,0-0.2,0.1-0.3,0.2c-0.2,0.2-0.5,0.3-1,0.5
		c-0.5,0.1-0.9,0.2-1.3,0.2c-0.3,0-0.4,0.1-0.4,0.2c0,0.1,0.1,0.2,0.4,0.2h0.1c0.2,0,0.4,0,0.5,0c0.3,0,0.5,0.1,0.5,0.2s0,1,0,2.6
		v4.5l-0.1,0.3c0,0.1-0.2,0.1-0.4,0.1c-0.2,0-0.3,0-0.5,0c-0.2,0-0.4,0.1-0.4,0.2c0,0.1,0.1,0.1,0.3,0.1h0.1c0.1,0,0.4,0,0.9,0
		s0.8,0,1,0c0.7,0,1.1,0,1.4,0H71c0.2,0,0.2,0,0.2-0.1c0-0.1-0.1-0.1-0.2-0.1l-0.6,0c-0.3,0-0.4-0.1-0.4-0.3v-6.4
		c0-0.3,0.1-0.6,0.2-0.7c0.5-0.6,1-0.9,1.7-0.9c0.7,0,1.2,0.3,1.4,0.9c0.1,0.3,0.2,1.2,0.2,2.7v3.9c0,0.4,0,0.6-0.1,0.7
		c0,0.1-0.2,0.1-0.5,0.1c-0.5,0-0.7,0-0.8,0c-0.1,0-0.1,0.1-0.1,0.1c0,0.1,0.1,0.1,0.3,0.1h0.1c0.2,0,1,0,2.4,0c0.4,0,0.8,0,1,0h0.2
		c0.2,0,0.3-0.1,0.3-0.2C76.4,164.8,76.3,164.8,76.2,164.8z M153.5,164.6c-0.6,0-0.9-0.1-1-0.3c0,0-0.1-1.3-0.1-3.8v-6.7
		c0-0.5,0-0.8,0-1.1l0.8,2.2c1.8,5,3,8.1,3.4,9.3c0.1,0.3,0.2,0.5,0.3,0.5c0.1,0,0.2-0.3,0.4-1l1-3.3c1-3.3,1.8-5.8,2.4-7.5
		c0.2-0.5,0.2-0.7,0.2-0.7v10.7c0,0.9,0,1.3-0.1,1.4c-0.2,0.2-0.6,0.2-1.3,0.2c-0.4,0-0.6,0.1-0.6,0.2c0,0.1,0.1,0.2,0.4,0.2h0.1
		c0.2,0,0.5,0,1.1,0c0.5,0,1,0,1.4,0c0.3,0,0.7,0,1.2,0c0.5,0,0.9,0,1,0h0.2c0.3,0,0.4-0.1,0.4-0.2c0-0.1-0.1-0.2-0.4-0.2h-0.1
		c-0.7,0-1.2-0.1-1.3-0.2c-0.1-0.1-0.2-0.4-0.2-1V154c0-1.5,0-2.3,0.1-2.4c0.1-0.2,0.3-0.3,0.7-0.3c0.1,0,0.4,0,0.8,0
		c0.2,0,0.3-0.1,0.3-0.2c0-0.1,0-0.1-0.1-0.2c-0.1,0-0.3-0.1-0.8-0.1l-3.1,0c-0.1,0.3-0.2,0.6-0.4,1l-2.2,6.8
		c-0.3,0.9-0.5,1.7-0.8,2.6c-1.4-4-2.3-6.4-2.6-7.2c-0.7-2-1.1-3.1-1.2-3.2c-0.3,0-0.9,0-1.7,0h-1.1c-0.2,0-0.3,0-0.4,0
		c-0.4,0-0.6,0.1-0.6,0.2c0,0.1,0.1,0.2,0.3,0.2c0.6,0,1,0.1,1.2,0.2c0.2,0.1,0.3,0.2,0.3,0.4c0,0.1,0,0.7,0,1.9v9.9
		c0,0.6,0,1-0.1,1.1c-0.1,0.1-0.2,0.2-0.6,0.2c-0.8,0-1.2,0.1-1.2,0.2c0,0.1,0.1,0.2,0.4,0.2l2.4-0.1c0.2,0,0.3,0,0.5,0
		c0.2,0,0.3,0,0.5,0c0.3,0,0.4-0.1,0.4-0.2C154.2,164.7,153.9,164.6,153.5,164.6z M171.1,163.9c-0.8-0.9-1.3-2-1.3-3.3
		c0-1.4,0.4-2.5,1.2-3.4c0.8-0.9,1.8-1.4,3.1-1.4c1.2,0,2.3,0.5,3.1,1.4c0.8,0.9,1.2,2,1.2,3.4c0,1.3-0.4,2.4-1.2,3.3
		c-0.8,0.9-1.8,1.3-3,1.3C173,165.3,172,164.8,171.1,163.9z M171.7,160.6c0,1.4,0.2,2.5,0.7,3.2c0.5,0.8,1.1,1.2,1.9,1.2
		c0.6,0,1.1-0.2,1.4-0.7c0.6-0.9,0.9-2.1,0.9-3.7c0-1.5-0.2-2.7-0.7-3.5c-0.3-0.6-0.9-0.9-1.7-0.9c-0.8,0-1.4,0.4-1.8,1.2
		C172,158.1,171.7,159.2,171.7,160.6z M193,164.8h-0.1c-0.1,0-0.2,0-0.2,0c-0.3,0-0.5,0-0.6-0.1c0,0-0.1-0.3-0.1-0.7v-4.7
		c0-1.2-0.1-1.9-0.4-2.3c-0.4-0.7-1.2-1.1-2.1-1.1c-1.1,0-2,0.5-2.8,1.4v-1c0-0.3,0-0.4-0.1-0.4c-0.1,0-0.2,0.1-0.3,0.2
		c-0.2,0.2-0.5,0.3-1,0.5c-0.5,0.1-0.9,0.2-1.3,0.2c-0.3,0-0.4,0.1-0.4,0.2c0,0.1,0.1,0.2,0.4,0.2h0.1c0.2,0,0.4,0,0.5,0
		c0.3,0,0.5,0.1,0.5,0.2s0,1,0,2.6v4.5l-0.1,0.3c0,0.1-0.2,0.1-0.4,0.1c-0.2,0-0.3,0-0.5,0c-0.2,0-0.4,0.1-0.4,0.2
		c0,0.1,0.1,0.1,0.3,0.1h0.1c0.1,0,0.4,0,0.9,0c0.5,0,0.8,0,1,0c0.7,0,1.1,0,1.4,0h0.3c0.2,0,0.2,0,0.2-0.1c0-0.1-0.1-0.1-0.2-0.1
		l-0.6,0c-0.3,0-0.4-0.1-0.4-0.3v-6.4c0-0.3,0.1-0.6,0.2-0.7c0.5-0.6,1-0.9,1.7-0.9c0.7,0,1.2,0.3,1.4,0.9c0.1,0.3,0.2,1.2,0.2,2.7
		v3.9c0,0.4,0,0.6-0.1,0.7s-0.2,0.1-0.5,0.1c-0.5,0-0.7,0-0.8,0c-0.1,0-0.1,0.1-0.1,0.1c0,0.1,0.1,0.1,0.3,0.1h0.1c0.2,0,1,0,2.4,0
		c0.4,0,0.8,0,1,0h0.2c0.2,0,0.3-0.1,0.3-0.2C193.2,164.8,193.1,164.8,193,164.8z M271,163.6c0,0.5,0,0.7-0.1,0.8
		c-0.1,0.2-0.4,0.3-0.8,0.3c-0.6,0-0.9,0.1-0.9,0.2c0,0.1,0.2,0.2,0.5,0.2c0.6,0,1.1,0,1.5,0c0.4,0,0.8,0,1.3,0c0.3,0,0.9,0,1.7,0
		c0.1,0,0.2,0,0.3,0c0.2,0,0.3-0.1,0.3-0.2c0-0.1-0.1-0.2-0.2-0.2c-0.6,0-1-0.1-1.2-0.1c-0.3-0.1-0.4-0.4-0.4-0.9v-12.4
		c0.1,0,0.5,0,1.2,0c0.3,0,0.6,0,1,0.1c0.7,0.1,1.1,0.4,1.4,0.9c0.2,0.3,0.4,0.8,0.5,1.3c0,0.2,0.1,0.5,0.1,0.7
		c0.1,0.4,0.2,0.5,0.3,0.5s0.2-0.1,0.2-0.3c0,0,0-0.1,0-0.1c0-0.1,0-0.1,0-0.2c-0.2-1.5-0.2-2.6-0.3-3.4l-3.4,0.1c-1,0-1.8,0-2.3,0
		l-4.2-0.1h-0.9c-0.1,1-0.1,1.9-0.2,2.5l0,0.5c0,0.2,0,0.3,0,0.5c0,0.3,0.1,0.4,0.2,0.4c0.2,0,0.2-0.2,0.3-0.6
		c0.2-1.4,0.7-2.2,1.5-2.5c0.3-0.1,1.2-0.2,2.5-0.2V163.6z M282.9,156.4h0.3c0.3,0,0.5,0.1,0.6,0.1c0.1,0.1,0.1,0.4,0.1,0.8v4.7
		c0,0.9,0,1.5,0.1,1.7c0,0.2,0.1,0.4,0.3,0.7c0.4,0.6,1.2,0.9,2.2,0.9c1.1,0,2-0.4,2.6-1.3v1.2c0,0.1,0,0.2,0.1,0.2c0,0,0.1,0,0.1,0
		c0.8-0.4,1.7-0.6,2.8-0.7c0.3,0,0.5-0.1,0.5-0.2c0-0.1-0.1-0.1-0.2-0.1c-0.6,0-1,0-1.1-0.1c-0.2,0-0.3-0.2-0.3-0.5
		s-0.1-0.9-0.1-1.9v-5.7c-0.2,0-0.7,0-1.5,0c-0.6,0-1,0-1.1,0H288c-0.3,0-0.4,0-0.4,0.1c0,0.1,0.3,0.2,0.9,0.2c0.2,0,0.4,0,0.5,0.1
		c0.1,0,0.1,0.2,0.1,0.4v0.7c0,0.2,0.1,0.6,0.1,1v3.2c0,1-0.1,1.7-0.4,2.1c-0.3,0.6-0.9,0.9-1.6,0.9c-0.7,0-1.1-0.3-1.3-0.8
		c-0.1-0.3-0.2-1-0.2-2.1v-5.7c-0.4,0.1-0.9,0.1-1.3,0.1c0,0-0.2,0-0.4,0c-0.5,0-0.8-0.1-1.1-0.1c-0.2,0-0.3,0-0.3,0.1
		C282.4,156.3,282.6,156.4,282.9,156.4z M304.8,162.8c0,0.1-0.1,0.4-0.3,0.7c-0.2,0.3-0.4,0.6-0.6,0.9c-0.6,0.6-1.4,0.9-2.4,0.9
		c-1.2,0-2.3-0.4-3.1-1.3c-0.8-0.9-1.2-2-1.2-3.3c0-1.4,0.4-2.5,1.2-3.4c0.8-0.9,1.8-1.4,3-1.4c1,0,1.8,0.3,2.4,0.9
		c0.7,0.6,1,1.3,1,2.2c-0.4,0.1-1,0.1-1.7,0.1h-1.4c-0.1,0-0.9,0-2.5,0.1c-0.1,0.5-0.1,0.9-0.1,1.3c0,1.4,0.3,2.4,0.8,3.2
		c0.5,0.7,1.3,1.1,2.2,1.1c0.5,0,1-0.1,1.3-0.4c0.3-0.2,0.7-0.7,1.1-1.4c0.1-0.1,0.1-0.2,0.2-0.2
		C304.7,162.6,304.8,162.7,304.8,162.8z M299.1,158.6h3.8c-0.1-1.6-0.6-2.5-1.8-2.5C300.1,156.1,299.4,156.9,299.1,158.6z
		 M383.6,164.9c-0.4-1-2-5.2-4.7-12.6c-0.2-0.5-0.3-0.8-0.4-1c-0.1-0.1-0.3-0.2-0.7-0.2c-0.7,0-1-0.1-1-0.3c0-0.1,0.1-0.2,0.3-0.2
		c0.1,0,0.2,0,0.2,0c0.7,0,1.5,0.1,2.3,0.1c0.2,0,0.4,0,0.9,0c0.4,0,0.9,0,1.6,0h0.2c0.2,0,0.3,0.1,0.3,0.2c0,0.2-0.2,0.2-0.6,0.3
		c-0.8,0-1.3,0.1-1.3,0.3c0,0.4,1.3,4,3.8,10.7c0.9-2.3,1.6-4,2.1-5.1l-2-5.3c-0.1-0.3-0.2-0.5-0.4-0.6c-0.1-0.1-0.4-0.1-0.8-0.1
		c-0.4,0-0.6-0.1-0.6-0.2c0-0.2,0.1-0.2,0.4-0.2c0.2,0,0.5,0,0.8,0c0.3,0,0.9,0,1.6,0h1.6h2.3c0.5,0,1.1,0,1.8-0.1
		c0.1,0,0.2,0,0.3,0c0.3,0,0.5,0.1,0.5,0.2c0,0.1-0.1,0.2-0.3,0.2h-0.3c-0.6,0-1.1,0.1-1.4,0.2c-0.1,0.1-0.4,0.6-0.8,1.5
		c-0.2,0.4-0.4,1-0.8,2c-0.1,0.2-0.2,0.5-0.4,0.9c0.1,0.3,0.4,1,0.9,2.3c0.7,1.6,1.2,2.9,1.6,4.1c0.8-2.2,1.7-4.8,2.7-7.9
		c0.6-1.6,0.8-2.5,0.8-2.7c0-0.3-0.2-0.4-0.7-0.4c-0.7,0-1-0.1-1-0.2c0-0.1,0.1-0.2,0.4-0.2c0.2,0,0.4,0,0.6,0
		c0.3,0,0.6,0.1,0.8,0.1h1.6c0.4,0,0.6,0,0.7,0c0,0,0.1,0.1,0.1,0.1c0,0.1-0.2,0.2-0.7,0.2c-0.5,0-0.9,0.2-1,0.5
		c-0.2,0.3-0.4,1-0.8,2.1c-0.6,1.9-1.2,3.5-1.6,4.8c-0.8,2.2-1.6,4.4-2.2,6.5c-0.1,0.2-0.1,0.3-0.2,0.3c-0.1,0-0.1-0.1-0.2-0.2
		c-0.1-0.1-0.2-0.6-0.6-1.4c-0.4-1.1-0.8-2.1-1.2-3.2c-0.4-0.9-0.7-1.7-1-2.6c-1,2.3-1.9,4.7-2.8,7.3c-0.1,0.2-0.1,0.2-0.2,0.2
		C383.7,165.3,383.7,165.2,383.6,164.9z M387.7,155c0.3-0.7,0.7-1.6,1.1-2.7c0.1-0.2,0.1-0.3,0.3-0.6l0-0.2c0-0.2-0.4-0.4-1.3-0.4
		h-0.2h-0.3c-0.5,0-0.7,0.1-0.7,0.3C386.5,151.4,386.9,152.6,387.7,155z M401.9,163.9c-0.8-0.9-1.2-2-1.2-3.3c0-1.4,0.4-2.5,1.2-3.4
		c0.8-0.9,1.8-1.4,3-1.4c1,0,1.8,0.3,2.4,0.9c0.7,0.6,1,1.3,1,2.2c-0.4,0.1-1,0.1-1.7,0.1h-1.4c-0.1,0-0.9,0-2.5,0.1
		c-0.1,0.5-0.1,0.9-0.1,1.3c0,1.4,0.3,2.4,0.8,3.2c0.5,0.7,1.3,1.1,2.2,1.1c0.5,0,1-0.1,1.3-0.4c0.3-0.2,0.7-0.7,1.1-1.4
		c0.1-0.1,0.1-0.2,0.2-0.2c0.1,0,0.2,0,0.2,0.1c0,0.1-0.1,0.4-0.3,0.7c-0.2,0.3-0.4,0.6-0.6,0.9c-0.6,0.6-1.4,0.9-2.4,0.9
		C403.8,165.3,402.8,164.8,401.9,163.9z M402.7,158.6h3.8c-0.1-1.6-0.6-2.5-1.8-2.5C403.7,156.1,403,156.9,402.7,158.6z
		 M422.9,164.6c0,0.1-0.1,0.1-0.3,0.1h-0.1c-0.1,0-0.2,0-0.3,0h-0.2c-0.7,0-1.2,0.1-1.7,0.4c-0.2,0.1-0.3,0.2-0.3,0.2
		c-0.1,0-0.2-0.1-0.2-0.2l0-0.6c-0.6,0.6-1.3,0.9-2.1,0.9c-1.2,0-2.1-0.4-2.8-1.3c-0.7-0.9-1.1-2-1.1-3.4c0-1.4,0.4-2.6,1.1-3.4
		c0.7-0.9,1.7-1.3,2.9-1.3c0.9,0,1.6,0.3,2.1,1v-3.2c0-1,0-1.7-0.1-1.9c-0.1-0.2-0.2-0.3-0.4-0.3c-0.4,0-0.6,0.1-0.7,0.1
		c-0.2,0-0.3-0.1-0.3-0.2s0.1-0.2,0.2-0.2l0.7,0c0.4,0,1-0.2,1.9-0.6c0.1,0,0.1,0,0.1,0c0.1,0,0.2,0.2,0.2,0.5c0,0.1,0,0.2,0,0.4
		c0,0.2,0,0.4,0,0.6v7.1c0,3.3,0,5,0.1,5.2c0,0.1,0.3,0.1,1,0.1C422.8,164.5,422.9,164.5,422.9,164.6z M419.8,159.5
		c0-1.3-0.1-2.2-0.4-2.5c-0.4-0.5-0.8-0.7-1.4-0.7c-0.7,0-1.3,0.4-1.8,1.2c-0.4,0.8-0.7,1.8-0.7,3.1c0,1.2,0.2,2.3,0.6,3.2
		c0.2,0.4,0.4,0.7,0.7,0.9c0.3,0.2,0.7,0.4,1,0.4c0.4,0,0.8-0.1,1.2-0.4c0.3-0.3,0.6-0.6,0.7-0.9
		C419.8,163.3,419.8,161.9,419.8,159.5z M499.3,165c0.4,0,0.8,0,1.3,0c0.3,0,0.9,0,1.7,0c0.1,0,0.2,0,0.3,0c0.2,0,0.3-0.1,0.3-0.2
		c0-0.1-0.1-0.2-0.2-0.2c-0.6,0-1-0.1-1.2-0.1c-0.3-0.1-0.4-0.4-0.4-0.9v-12.4c0.1,0,0.5,0,1.2,0c0.3,0,0.6,0,1,0.1
		c0.7,0.1,1.1,0.4,1.4,0.9c0.2,0.3,0.4,0.8,0.5,1.3c0,0.2,0.1,0.5,0.1,0.7c0.1,0.4,0.2,0.5,0.3,0.5s0.2-0.1,0.2-0.3c0,0,0-0.1,0-0.1
		c0-0.1,0-0.1,0-0.2c-0.2-1.5-0.2-2.6-0.3-3.4l-3.4,0.1c-1,0-1.8,0-2.3,0l-4.2-0.1h-0.9c-0.1,1-0.1,1.9-0.2,2.5l0,0.5
		c0,0.2,0,0.3,0,0.5c0,0.3,0.1,0.4,0.2,0.4c0.2,0,0.2-0.2,0.3-0.6c0.2-1.4,0.7-2.2,1.5-2.5c0.3-0.1,1.2-0.2,2.5-0.2v12.3
		c0,0.5,0,0.7-0.1,0.8c-0.1,0.2-0.4,0.3-0.8,0.3c-0.6,0-0.9,0.1-0.9,0.2c0,0.1,0.2,0.2,0.5,0.2C498.4,165,498.9,165,499.3,165z
		 M511.8,151.7c0.1,0.2,0.1,1.4,0.1,3.6v9.3c0,0.2-0.2,0.3-0.5,0.3l-0.3,0h-0.3c-0.2,0-0.2,0-0.2,0.1c0,0.1,0.1,0.1,0.2,0.1h0.2
		c0.1,0,0.8,0,1.9,0h1.6h0.2c0.1,0,0.2,0,0.2-0.1c0-0.1-0.1-0.2-0.2-0.2c-0.5,0-0.8,0-0.9-0.1s-0.2-0.1-0.2-0.2c0-0.1,0-0.3,0-0.6
		v-5.2c0-0.7,0.1-1.1,0.2-1.3c0.4-0.6,0.9-0.9,1.6-0.9c0.8,0,1.3,0.3,1.5,0.9c0.1,0.3,0.2,1.1,0.2,2.3v4.2c0,0.4,0,0.7-0.1,0.8
		c0,0.1-0.2,0.1-0.5,0.1c-0.5,0-0.8,0-0.8,0.1c0,0.1,0.1,0.2,0.3,0.2h0.2c1.7,0,2.7,0,3.2,0c0.1,0,0.2,0,0.3,0
		c0.2,0,0.3-0.1,0.3-0.2c0-0.1-0.1-0.1-0.2-0.1c-0.7,0-1.1-0.1-1.1-0.2v-5.2c0-0.7,0-1.2,0-1.4c-0.1-0.5-0.2-1-0.4-1.3
		c-0.5-0.6-1.2-0.9-2.3-0.9c-1,0-1.9,0.4-2.5,1.3v-5c0-0.9,0-1.4-0.1-1.6c-0.1,0-0.2,0.1-0.3,0.1c-0.6,0.3-1.3,0.5-2,0.5
		c-0.4,0-0.6,0-0.7,0c-0.1,0-0.1,0.1-0.1,0.2c0,0.1,0.2,0.2,0.5,0.2C511.4,151.5,511.8,151.5,511.8,151.7z M534.3,164.2
		c-0.6,0-1,0-1.1-0.1c-0.2,0-0.3-0.2-0.3-0.5c0-0.3-0.1-0.9-0.1-1.9v-5.7c-0.2,0-0.7,0-1.5,0c-0.6,0-1,0-1.1,0H530
		c-0.3,0-0.4,0-0.4,0.1c0,0.1,0.3,0.2,0.9,0.2c0.2,0,0.4,0,0.5,0.1c0.1,0,0.1,0.2,0.1,0.4v0.7c0,0.2,0.1,0.6,0.1,1v3.2
		c0,1-0.1,1.7-0.4,2.1c-0.3,0.6-0.9,0.9-1.6,0.9c-0.7,0-1.1-0.3-1.3-0.8c-0.1-0.3-0.2-1-0.2-2.1v-5.7c-0.4,0.1-0.9,0.1-1.3,0.1
		c0,0-0.2,0-0.4,0c-0.5,0-0.8-0.1-1.1-0.1c-0.2,0-0.3,0-0.3,0.1c0,0.1,0.2,0.2,0.6,0.2h0.3c0.3,0,0.5,0.1,0.6,0.1
		c0.1,0.1,0.1,0.4,0.1,0.8v4.7c0,0.9,0,1.5,0.1,1.7c0,0.2,0.1,0.4,0.3,0.7c0.4,0.6,1.2,0.9,2.2,0.9c1.1,0,2-0.4,2.6-1.3v1.2
		c0,0.1,0,0.2,0.1,0.2c0,0,0.1,0,0.1,0c0.8-0.4,1.7-0.6,2.8-0.7c0.3,0,0.5-0.1,0.5-0.2C534.6,164.2,534.5,164.2,534.3,164.2z
		 M614.9,164.5c-0.1,0.1-0.4,0.2-0.8,0.2c-0.5,0-0.7,0.1-0.7,0.2c0,0.1,0.1,0.2,0.4,0.2h3.1c0.1,0,0.3,0,0.6,0c0.3,0,0.6,0,0.8,0
		h0.2c0.3,0,0.4-0.1,0.4-0.2c0-0.1-0.1-0.2-0.3-0.2c-0.5,0-0.8,0-1-0.1c-0.3-0.1-0.5-0.4-0.5-0.8v-4v-2.1c0.4,0,0.8,0,1.3,0
		c1,0,1.6,0.1,1.9,0.3c0.3,0.2,0.5,0.7,0.6,1.6c0.1,0.5,0.1,0.9,0.1,0.9c0,0.1,0.1,0.1,0.2,0.1c0.1,0,0.2-0.1,0.2-0.2
		c0-0.1,0-0.2,0-0.2c0-0.6-0.1-1.4-0.1-2.5c0-0.8,0-1.7,0.1-2.6c0-0.1,0-0.2,0-0.3c0-0.2-0.1-0.3-0.2-0.3c-0.1,0-0.2,0.2-0.2,0.5
		c-0.1,1.1-0.3,1.8-0.7,2c-0.4,0.2-1.5,0.4-3.2,0.3v-6c0.9,0,1.6-0.1,2.3-0.1c0.9,0,1.4,0,1.6,0c0.7,0.1,1.2,0.2,1.5,0.5
		c0.5,0.5,0.8,1.2,1,2.2c0.1,0.3,0.2,0.5,0.3,0.5c0.1,0,0.2-0.1,0.2-0.3c0-0.1,0-0.3,0-0.5c-0.1-0.5-0.1-1-0.2-1.5
		c-0.1-0.8-0.1-1.4-0.1-1.5c-0.5,0.1-1.9,0.1-4.3,0.1c-0.9,0-2,0-3.3,0c-1.4,0-2,0-2,0h-0.3c-0.2,0-0.4,0.1-0.4,0.2
		c0,0.1,0.1,0.2,0.3,0.2c0.6,0,0.9,0.1,1.1,0.1c0.1,0.1,0.2,0.2,0.2,0.5v11.8C615,164.1,615,164.4,614.9,164.5z M628.5,156.7
		c0.5,0,0.9,0.1,1.1,0.2c0.2,0.1,0.3,0.6,0.3,1.3v5.7c0,0.5,0,0.7,0,0.8c-0.1,0.1-0.4,0.2-0.8,0.2h-0.3c-0.2,0-0.3,0-0.3,0.1
		c0,0.1,0.1,0.1,0.3,0.1c0.3,0,0.5,0,0.7,0c0.2,0,0.5,0,0.9,0c0.8,0,1.3,0,1.6,0c0.3,0,0.6,0,0.9,0c0.2,0,0.3,0,0.3-0.1
		c0-0.1-0.1-0.1-0.2-0.2c-0.6,0-0.9,0-1.1-0.1c-0.1,0-0.2-0.1-0.2-0.3v-4.1c0-1.5,0.2-2.6,0.5-3.1c0.3-0.5,0.6-0.7,1-0.7
		c0.3,0,0.5,0.1,0.5,0.3c0,0.1-0.1,0.2-0.2,0.3c-0.1,0.1-0.2,0.3-0.2,0.5c0,0.2,0.1,0.4,0.2,0.5c0.2,0.1,0.4,0.2,0.6,0.2
		c0.3,0,0.5-0.1,0.7-0.3c0.2-0.2,0.3-0.5,0.3-0.8c0-0.4-0.1-0.7-0.4-1c-0.3-0.3-0.7-0.4-1.1-0.4c-0.8,0-1.4,0.5-1.9,1.4v-0.4
		c0-0.3,0-0.7-0.1-1l-0.2,0.1l-0.3,0.1c-0.6,0.3-1.2,0.4-1.7,0.4c0,0-0.1,0-0.3,0c-0.2,0-0.4,0-0.6,0h-0.1c-0.1,0-0.2,0-0.2,0.1
		C628.2,156.6,628.3,156.7,628.5,156.7z M641.7,153c0.6,0,0.9-0.3,0.9-0.9c0-0.6-0.3-0.9-0.9-0.9s-0.9,0.3-0.9,1
		c0,0.2,0.1,0.5,0.3,0.6C641.2,152.9,641.4,153,641.7,153z M640.9,164.6c0,0.1-0.3,0.1-0.9,0.1c-0.3,0-0.4,0.1-0.4,0.2
		c0,0.1,0.1,0.2,0.2,0.2c0.1,0,0.2,0,0.2-0.1h2.1c0.3,0,0.6,0,1,0c0.3,0,0.5,0,0.5,0c0.2,0,0.3-0.1,0.3-0.2c0-0.1-0.1-0.2-0.3-0.2
		c-0.4,0-0.7,0-0.9-0.1c-0.1,0-0.2-0.1-0.2-0.2c0-0.1,0-0.4,0-1v-5.6c0-0.4,0-0.6,0-0.8c0-0.2,0-0.2,0-0.2c0-0.5-0.1-0.9-0.2-1.1
		l-0.2,0.1c-0.6,0.4-1.4,0.6-2.3,0.6c-0.2,0-0.3,0.1-0.3,0.1c0,0.1,0.1,0.1,0.2,0.1c0.1,0,0.2,0,0.2,0h0.6c0.2,0,0.2,0,0.3,0.1
		c0,0.1,0,0.3,0.1,0.6v6.2C641,164.3,641,164.5,640.9,164.6z M727.8,165.3c0.2,0,0.3-0.1,0.3-0.3c0-0.4,0.1-0.6,0.3-0.6
		c0.1,0,0.3,0.1,0.6,0.2c1,0.5,1.9,0.7,2.7,0.7c1.3,0,2.3-0.4,3.2-1.2c0.9-0.8,1.3-1.8,1.3-3c0-0.9-0.3-1.6-0.8-2.3
		c-0.6-0.7-1.5-1.3-2.8-2c-1.1-0.5-1.8-1-2.1-1.3c-0.6-0.5-0.9-1.2-0.9-2.1c0-0.8,0.2-1.4,0.6-1.8c0.4-0.4,0.9-0.7,1.6-0.7
		c0.7,0,1.3,0.3,1.9,0.8c0.6,0.5,0.9,1.2,1.1,2c0.1,0.3,0.2,0.5,0.3,0.5c0.1,0,0.2-0.1,0.2-0.2l0-0.3c-0.1-0.4-0.1-0.9-0.1-1.6
		c0-0.5,0-0.9,0.1-1.2c0-0.1,0-0.1,0-0.2c0-0.2-0.1-0.2-0.2-0.2c-0.1,0-0.2,0.1-0.2,0.2c0,0.2-0.1,0.4-0.1,0.4
		c0,0.1-0.1,0.1-0.3,0.1c-0.1,0-0.3-0.1-0.6-0.2c-0.8-0.3-1.5-0.5-1.9-0.5c-1.1,0-2.1,0.4-2.8,1.1c-0.7,0.7-1.1,1.7-1.1,2.8
		c0,0.9,0.3,1.6,0.8,2.2c0.5,0.6,1.4,1.2,2.7,1.9c1.1,0.5,1.8,1.1,2.3,1.6c0.4,0.5,0.7,1.2,0.7,2c0,0.9-0.2,1.5-0.7,2
		c-0.5,0.5-1.1,0.7-1.9,0.7c-2,0-3.1-1.2-3.5-3.7c-0.1-0.3-0.2-0.5-0.3-0.5c-0.2,0-0.2,0.1-0.2,0.3c0,0.1,0,0.2,0,0.3
		c0,0.6,0,1,0,1.2c0,0.7-0.1,1.5-0.2,2.3c0,0.1,0,0.1,0,0.2C727.6,165.2,727.7,165.3,727.8,165.3z M746.2,163.8
		c-0.5,1-1.3,1.5-2.4,1.5c-0.6,0-1.1-0.2-1.5-0.5c-0.4-0.3-0.6-0.8-0.6-1.3c0-1.1,0.7-2,2-2.7c0.5-0.2,1.3-0.4,2.4-0.7v-0.5
		c0-1.2-0.1-2-0.2-2.4c-0.2-0.7-0.7-1-1.5-1c-0.5,0-0.9,0.1-1.2,0.4c-0.3,0.3-0.5,0.6-0.5,1c0,0.1,0.1,0.2,0.3,0.2s0.3,0.1,0.5,0.2
		c0.1,0.2,0.2,0.3,0.2,0.6c0,0.6-0.3,0.9-0.9,0.9c-0.3,0-0.6-0.1-0.8-0.3s-0.3-0.5-0.3-0.8c0-0.6,0.3-1.2,0.8-1.7
		c0.6-0.5,1.3-0.8,2.3-0.8c1.5,0,2.4,0.4,2.8,1.2c0.1,0.3,0.2,0.9,0.2,1.9v3.8c0,0.6,0,1,0,1.1c0.1,0.5,0.3,0.7,0.6,0.7
		c0.4,0,0.7-0.1,0.9-0.4c0.1-0.2,0.2-0.2,0.3-0.2c0.1,0,0.1,0,0.1,0.1c0,0.2-0.2,0.5-0.7,0.7c-0.5,0.3-1,0.4-1.4,0.4
		C746.7,165.2,746.2,164.7,746.2,163.8z M746.2,160.4c-1,0.2-1.7,0.5-2.2,0.9c-0.4,0.4-0.7,0.9-0.7,1.5c0,0.4,0.1,0.8,0.4,1.1
		c0.2,0.3,0.6,0.4,0.9,0.4c0.6,0,1-0.3,1.4-1c0.1-0.2,0.1-0.6,0.1-1.4V160.4z M754.6,156.4c0.1,0,0.2,0.1,0.2,0.2v6.1
		c0,1.1,0.1,1.7,0.3,1.9c0.4,0.4,1,0.6,1.7,0.6c0.8,0,1.5-0.3,2.1-0.8c0.3-0.3,0.5-0.5,0.5-0.7c0-0.1,0-0.1-0.1-0.1
		c-0.1,0-0.1,0-0.2,0.1c-0.6,0.5-1.1,0.8-1.5,0.8c-0.5,0-0.9-0.2-0.9-0.7c-0.1-0.5-0.1-1.7-0.1-3.6v-3.8c0.4,0,0.7,0,0.8,0
		c1.1,0,1.7-0.1,1.7-0.3c0-0.1-0.1-0.2-0.2-0.2c0,0-0.1,0-0.1,0c-0.2,0.1-0.7,0.1-1.5,0.1c-0.3,0-0.5,0-0.6,0
		c-0.1-0.2-0.1-0.5-0.1-1.1c0-0.2,0-0.3,0-0.3v-0.1c0-0.1,0-0.1-0.1-0.1c-0.1,0-0.2,0.1-0.3,0.2c-0.6,1-1.4,1.5-2.5,1.6
		c-0.2,0-0.2,0.1-0.2,0.2s0.2,0.1,0.5,0.1H754.6z M175.3,350.5c2.1-3.3,3.2-5,3.2-5.1c0-0.1-0.3-0.2-0.9-0.2c0,0-0.1,0-0.3,0
		c-0.2,0-0.3,0-0.5,0h-5.7c-0.6,0-1.6,0-3-0.1c-0.6,0-1-0.1-1.1-0.1c-0.2,0.2-0.3,0.6-0.4,1.2c-0.1,0.8-0.2,1.7-0.4,2.9
		c-0.1,0.5-0.1,0.8-0.1,1.1c0,0.2,0.1,0.3,0.3,0.3c0.1,0,0.3-0.1,0.3-0.3c0.2-1.1,0.4-1.7,0.5-1.9c0.1-0.2,0.2-0.3,0.3-0.5
		c0.2-0.1,0.4-0.2,0.8-0.2c0.3,0,1.6,0,3.7,0h4.2c-1.7,2.5-3.1,4.7-4.2,6.6c-1.7,3-2.6,5.4-2.6,7.3c0,2,0.6,3,1.7,3
		c1,0,1.5-0.6,1.5-1.9c0-0.4,0-0.8-0.1-1.4c-0.3-1.6-0.4-2.6-0.4-3.1c0-1,0.2-2.1,0.7-3.1C173.3,353.8,174.1,352.4,175.3,350.5z
		 M289.7,363.4c-1,0.8-2.3,1.1-3.8,1.1c-1.6,0-3-0.4-4.1-1.1c-1.5-1-2.3-2.4-2.3-4.2c0-2.7,1.5-4.5,4.4-5.2v-0.1
		c-1.1-0.3-2-0.8-2.6-1.6c-0.6-0.7-0.9-1.6-0.9-2.6c0-1.4,0.5-2.6,1.5-3.5c1-0.9,2.2-1.4,3.8-1.4c1.4,0,2.5,0.3,3.4,1
		c1.3,1,1.9,2.2,1.9,3.7c0,1.1-0.3,2-1,2.9c-0.6,0.9-1.4,1.4-2.4,1.5l0,0.1c2.9,0.6,4.4,2.2,4.4,4.9
		C292,360.8,291.2,362.2,289.7,363.4z M285.8,353.8c0.8,0,1.4-0.3,1.7-0.9c0.4-0.8,0.6-1.9,0.6-3.3c0-1.6-0.3-2.8-0.9-3.6
		c-0.3-0.5-0.9-0.7-1.7-0.7c-1.7,0-2.6,1.4-2.6,4.3C283,352.4,284,353.8,285.8,353.8z M289.2,359.2c0-3.3-1.1-5-3.3-5
		c-1.1,0-2,0.4-2.6,1.3c-0.6,0.8-0.9,2-0.9,3.5c0,1.6,0.3,2.8,1,3.7c0.6,0.9,1.5,1.3,2.7,1.3c1,0,1.7-0.3,2.1-0.8
		C288.8,362.3,289.2,361,289.2,359.2z M404.1,359.8c-1.1,1.9-2.6,3.3-4.3,4c-1.3,0.5-2.6,0.8-3.9,0.8c-0.5,0-0.7-0.1-0.7-0.2
		c0-0.1,0.1-0.2,0.4-0.2c3.1-0.4,5.2-1.9,6.4-4.6c0.5-1.1,0.8-2.5,1-4.1c-1,1-2.1,1.4-3.4,1.4c-1.2,0-2.3-0.4-3.3-1.1
		c-1.4-1.1-2.2-2.6-2.2-4.7c0-1.8,0.5-3.3,1.6-4.5c1.1-1.2,2.4-1.9,3.9-1.9c1.9,0,3.4,0.8,4.6,2.4c1.2,1.6,1.8,3.6,1.8,6.1
		C405.8,355.7,405.2,357.8,404.1,359.8z M402.9,351.5c0-2.1-0.4-3.7-1.2-4.9c-0.5-0.8-1.3-1.2-2.2-1.2c-1.9,0-2.8,2-2.8,5.9
		c0,3.4,1.1,5.1,3.2,5.1c0.9,0,1.7-0.4,2.2-1.3C402.7,354.2,402.9,353,402.9,351.5z M505.9,345.9c0-0.2,0-0.3,0-0.5v-0.5
		c0-0.2-0.1-0.3-0.2-0.3c-0.1,0-0.2,0.1-0.4,0.2c-0.5,0.6-1.2,1.1-2.1,1.5c-0.9,0.4-1.7,0.7-2.6,0.8c-0.2,0-0.3,0.1-0.3,0.2
		c0,0.1,0.1,0.2,0.3,0.2c0.1,0,0.2,0,0.4,0c1.1-0.1,1.7-0.1,1.8-0.1c0.2,0,0.4,0.1,0.4,0.2c0,0.1,0.1,0.5,0.1,1v12.9
		c0,0.9,0,1.4-0.1,1.7c0,0.3-0.4,0.4-0.9,0.4c-0.5,0-0.9,0-1.3,0c-0.3,0-0.4,0.1-0.4,0.2c0,0.2,0.2,0.2,0.7,0.2c0.2,0,0.5,0,0.8,0
		c0.3,0,1.1,0,2.4,0c0.7,0,1.4,0,2.1,0h1h0.3c0.4,0,0.6-0.1,0.6-0.2c0-0.2-0.1-0.3-0.4-0.3h-0.4h-0.5h-0.6c-0.4,0-0.6-0.1-0.7-0.2
		c-0.1-0.1-0.1-0.5-0.1-1.2V345.9z M518,354.5c0-3.4,0.9-6,2.6-8c1-1.2,2.3-1.8,3.8-1.8c1.8,0,3.2,0.8,4.3,2.4c1.3,2,2,4.6,2,7.7
		c0,1.6-0.2,3.2-0.7,4.6c-0.5,1.4-1.1,2.6-2,3.5c-0.9,1-2,1.4-3.4,1.4c-1.9,0-3.5-0.9-4.7-2.8C518.6,359.8,518,357.4,518,354.5z
		 M521,354.4c0,6.4,1.2,9.6,3.6,9.6c1.1,0,1.9-0.9,2.4-2.8c0.5-1.7,0.7-4.1,0.7-7.2c0-2.7-0.3-5-0.9-6.7c-0.5-1.4-1.3-2-2.4-2
		C522.1,345.2,521,348.3,521,354.4z M622.4,363.7H622h-0.5h-0.6c-0.4,0-0.6-0.1-0.7-0.2c-0.1-0.1-0.1-0.5-0.1-1.2v-16.4
		c0-0.2,0-0.3,0-0.5v-0.5c0-0.2-0.1-0.3-0.2-0.3c-0.1,0-0.2,0.1-0.4,0.2c-0.5,0.6-1.2,1.1-2.1,1.5c-0.9,0.4-1.7,0.7-2.6,0.8
		c-0.2,0-0.3,0.1-0.3,0.2c0,0.1,0.1,0.2,0.3,0.2c0.1,0,0.2,0,0.4,0c1.1-0.1,1.7-0.1,1.8-0.1c0.2,0,0.4,0.1,0.4,0.2
		c0,0.1,0.1,0.5,0.1,1v12.9c0,0.9,0,1.4-0.1,1.7c0,0.3-0.4,0.4-0.9,0.4c-0.5,0-0.9,0-1.3,0c-0.3,0-0.4,0.1-0.4,0.2
		c0,0.2,0.2,0.2,0.7,0.2c0.2,0,0.5,0,0.8,0c0.3,0,1.1,0,2.4,0c0.7,0,1.4,0,2.1,0h1h0.3c0.4,0,0.6-0.1,0.6-0.2
		C622.8,363.8,622.7,363.7,622.4,363.7z M634.6,347.4c0,0.1,0.1,0.2,0.3,0.2c0.1,0,0.2,0,0.4,0c1.1-0.1,1.7-0.1,1.8-0.1
		c0.2,0,0.4,0.1,0.4,0.2c0,0.1,0.1,0.5,0.1,1v12.9c0,0.9,0,1.4-0.1,1.7c0,0.3-0.4,0.4-0.9,0.4c-0.5,0-0.9,0-1.3,0
		c-0.3,0-0.4,0.1-0.4,0.2c0,0.2,0.2,0.2,0.7,0.2c0.2,0,0.5,0,0.8,0c0.3,0,1.1,0,2.4,0c0.7,0,1.4,0,2.1,0h1h0.3
		c0.4,0,0.6-0.1,0.6-0.2c0-0.2-0.1-0.3-0.4-0.3h-0.4h-0.5H641c-0.4,0-0.6-0.1-0.7-0.2c-0.1-0.1-0.1-0.5-0.1-1.2v-16.4
		c0-0.2,0-0.3,0-0.5v-0.5c0-0.2-0.1-0.3-0.2-0.3c-0.1,0-0.2,0.1-0.4,0.2c-0.5,0.6-1.2,1.1-2.1,1.5c-0.9,0.4-1.7,0.7-2.6,0.8
		C634.7,347.2,634.6,347.3,634.6,347.4z M735.2,363.7c-0.4,0-0.6-0.1-0.7-0.2c-0.1-0.1-0.1-0.5-0.1-1.2v-16.4c0-0.2,0-0.3,0-0.5
		v-0.5c0-0.2-0.1-0.3-0.2-0.3c-0.1,0-0.2,0.1-0.4,0.2c-0.5,0.6-1.2,1.1-2.1,1.5c-0.9,0.4-1.7,0.7-2.6,0.8c-0.2,0-0.3,0.1-0.3,0.2
		c0,0.1,0.1,0.2,0.3,0.2c0.1,0,0.2,0,0.4,0c1.1-0.1,1.7-0.1,1.8-0.1c0.2,0,0.4,0.1,0.4,0.2c0,0.1,0.1,0.5,0.1,1v12.9
		c0,0.9,0,1.4-0.1,1.7c0,0.3-0.4,0.4-0.9,0.4c-0.5,0-0.9,0-1.3,0c-0.3,0-0.4,0.1-0.4,0.2c0,0.2,0.2,0.2,0.7,0.2c0.2,0,0.5,0,0.8,0
		c0.3,0,1.1,0,2.4,0c0.7,0,1.4,0,2.1,0h1h0.3c0.4,0,0.6-0.1,0.6-0.2c0-0.2-0.1-0.3-0.4-0.3h-0.4h-0.5H735.2z M758.9,358.6
		c-0.2,0-0.4,0.4-0.5,1.1c-0.2,1.1-0.4,1.7-0.7,1.8c-0.3,0.2-0.7,0.3-1.1,0.3c-0.4,0-1.4,0.1-2.9,0.1c-1.8,0-3.3,0-4.6,0.1
		c3.2-2,5.5-3.9,6.8-5.6c1.4-1.7,2-3.6,2-5.6c0-1.8-0.6-3.3-1.8-4.5c-1-1-2.3-1.5-3.9-1.5c-1.6,0-2.8,0.4-3.8,1.2
		c-1,0.8-1.4,1.9-1.4,3.3c0,0.7,0.2,1.3,0.6,1.7c0.4,0.4,0.9,0.6,1.6,0.6c1.1,0,1.6-0.5,1.6-1.5c0-1.1-0.6-1.6-1.9-1.7
		c-0.5,0-0.7-0.2-0.7-0.5c0-0.5,0.2-1,0.7-1.5c0.6-0.6,1.4-1,2.5-1c1.1,0,1.9,0.4,2.5,1.1c0.8,1,1.2,2.4,1.2,4.2
		c0,2.7-0.8,5.1-2.5,7.2c-1,1.2-2.6,2.7-4.9,4.6c-1,0.8-1.4,1.2-1.4,1.4c0,0.2,0.2,0.3,0.7,0.3c-0.1,0,0.3,0,1.5-0.1
		c1.1,0,2.3-0.1,3.6-0.1c2.4,0,4.6,0,6.4,0.1l0-0.3c0.2-2.4,0.3-3.9,0.4-4.5c0-0.2,0.1-0.4,0.1-0.4
		C759.1,358.7,759.1,358.6,758.9,358.6z M43.4,461.5c-0.2,0-0.3,0.1-0.3,0.2c0,0.1,0.1,0.2,0.3,0.2c0.1,0,0.2,0,0.4,0
		c1.1-0.1,1.7-0.1,1.8-0.1c0.2,0,0.4,0.1,0.4,0.2c0,0.1,0.1,0.5,0.1,1v12.9c0,0.9,0,1.4-0.1,1.7c0,0.3-0.4,0.4-0.9,0.4
		c-0.5,0-0.9,0-1.3,0c-0.3,0-0.4,0.1-0.4,0.2c0,0.2,0.2,0.2,0.7,0.2c0.2,0,0.5,0,0.8,0c0.3,0,1.1,0,2.4,0c0.7,0,1.4,0,2.1,0h1h0.3
		c0.4,0,0.6-0.1,0.6-0.2c0-0.2-0.1-0.3-0.4-0.3h-0.4h-0.5h-0.6c-0.4,0-0.6-0.1-0.7-0.2c-0.1-0.1-0.1-0.5-0.1-1.2v-16.4
		c0-0.2,0-0.3,0-0.5v-0.5c0-0.2-0.1-0.3-0.2-0.3c-0.1,0-0.2,0.1-0.4,0.2c-0.5,0.6-1.2,1.1-2.1,1.5C45.1,461.1,44.3,461.4,43.4,461.5
		z M69.8,467.2c1.6-0.8,2.3-2,2.3-3.6c0-1.2-0.5-2.2-1.4-3.1c-0.9-0.9-2.2-1.3-4-1.3c-1.5,0-2.7,0.3-3.6,1c-0.8,0.7-1.3,1.5-1.3,2.5
		c0,0.6,0.2,1.1,0.6,1.5c0.4,0.4,0.9,0.5,1.5,0.5c1,0,1.5-0.5,1.5-1.4c0-0.7-0.6-1.2-1.8-1.5c-0.3-0.1-0.4-0.2-0.4-0.3
		c0-0.4,0.3-0.8,0.8-1.1c0.6-0.3,1.2-0.5,2-0.5c1,0,1.8,0.4,2.4,1.1c0.6,0.7,0.9,1.6,0.9,2.8c0,1.2-0.3,2.2-1,2.9
		c-0.7,0.8-1.7,1.2-3,1.4c-0.4,0.1-0.7,0.2-0.7,0.3c0,0.2,0.1,0.2,0.4,0.2h0.2c0.1,0,0.3,0,0.6,0c2.8,0,4.2,1.5,4.2,4.6
		c0,1.5-0.4,2.8-1.3,3.7c-0.9,1-2,1.4-3.4,1.4c-0.6,0-1.1-0.1-1.6-0.3c-0.5-0.2-0.7-0.4-0.7-0.6c0-0.1,0.2-0.3,0.5-0.4
		c0.9-0.4,1.3-0.9,1.3-1.5c0-0.4-0.2-0.8-0.5-1c-0.3-0.3-0.7-0.4-1.2-0.4c-0.6,0-1.1,0.2-1.4,0.5c-0.4,0.3-0.5,0.8-0.5,1.4
		c0,0.7,0.3,1.2,0.8,1.8c0.8,0.8,2.1,1.2,3.8,1.2c2.1,0,3.8-0.6,5.2-1.8c1.2-1.1,1.8-2.4,1.8-3.9c0-1.7-0.7-3.1-2.1-4
		c-0.9-0.6-2.2-1-3.7-1v-0.2C68.4,467.7,69.3,467.5,69.8,467.2z M164.4,478h-0.6c-0.4,0-0.6-0.1-0.7-0.2c-0.1-0.1-0.1-0.5-0.1-1.2
		v-16.4c0-0.2,0-0.3,0-0.5v-0.5c0-0.2-0.1-0.3-0.2-0.3c-0.1,0-0.2,0.1-0.4,0.2c-0.5,0.6-1.2,1.1-2.1,1.5c-0.9,0.4-1.7,0.7-2.6,0.8
		c-0.2,0-0.3,0.1-0.3,0.2c0,0.1,0.1,0.2,0.3,0.2c0.1,0,0.2,0,0.4,0c1.1-0.1,1.7-0.1,1.8-0.1c0.2,0,0.4,0.1,0.4,0.2
		c0,0.1,0.1,0.5,0.1,1v12.9c0,0.9,0,1.4-0.1,1.7c0,0.3-0.4,0.4-0.9,0.4c-0.5,0-0.9,0-1.3,0c-0.3,0-0.4,0.1-0.4,0.2
		c0,0.2,0.2,0.2,0.7,0.2c0.2,0,0.5,0,0.8,0c0.3,0,1.1,0,2.4,0c0.7,0,1.4,0,2.1,0h1h0.3c0.4,0,0.6-0.1,0.6-0.2c0-0.2-0.1-0.3-0.4-0.3
		h-0.4H164.4z M188,475c0,0.2,0,0.3,0,0.4c0,0.2-0.1,0.3-0.3,0.3c-0.2,0-0.3-0.1-0.3-0.3c0-0.2-0.1-0.8-0.2-1.7
		c0-0.1-0.1-0.3-0.2-0.3c-0.2-0.1-0.7-0.2-1.5-0.2c-0.2,0-0.4,0-0.6,0v4.3c0.1,0.2,0.2,0.4,0.5,0.4c0.2,0.1,0.7,0.1,1.6,0.1
		c0.4,0,0.6,0,0.7,0.1c0,0,0,0.1,0,0.2c0,0.1-0.4,0.2-1.1,0.2c-0.7,0-2.8,0-6.1,0.1c-0.2,0-0.4,0-0.6,0c-0.4,0-0.5-0.1-0.5-0.3
		c0-0.2,0.3-0.3,0.8-0.2c0.6,0,1.2,0,1.7-0.1c0.2,0,0.4-0.1,0.4-0.3c0.1-0.2,0.1-0.5,0.1-1v-3.3c-0.4,0-0.8,0-1.3,0h-1.1
		c-0.3,0-0.5,0-0.9,0c-0.3,0-0.4,0-0.5,0l-3.5-0.1c-0.3,0-0.4-0.1-0.4-0.2c0-0.1,1.3-2,4-5.7c0.8-1.2,2.7-3.8,5.6-7.8
		c0.1-0.2,0.3-0.2,0.4-0.2c0.2,0,0.3,0.2,0.3,0.5v12.9h0.3c0.6,0,1.1,0,1.4-0.1c0.4-0.1,0.5-0.3,0.5-0.5c0-0.6,0-1,0-1.2
		c0-0.7,0.1-1,0.3-1c0.3,0,0.4,0.3,0.4,0.8v1.2v2C187.9,474.4,187.9,474.8,188,475z M182.5,463.2c-0.2,0.3-0.6,0.9-1.1,1.7
		c-0.8,1.1-2,2.8-3.6,5l-2,2.7c0.7,0,2.1,0,4.4,0c0.8,0,1.5,0,2.2,0v-1.9c0-0.9,0-2.1,0.1-3.7C182.5,465.1,182.5,463.9,182.5,463.2z
		 M277.3,476.6v-16.4c0-0.2,0-0.3,0-0.5v-0.5c0-0.2-0.1-0.3-0.2-0.3c-0.1,0-0.2,0.1-0.4,0.2c-0.5,0.6-1.2,1.1-2.1,1.5
		c-0.9,0.4-1.7,0.7-2.6,0.8c-0.2,0-0.3,0.1-0.3,0.2c0,0.1,0.1,0.2,0.3,0.2c0.1,0,0.2,0,0.4,0c1.1-0.1,1.7-0.1,1.8-0.1
		c0.2,0,0.4,0.1,0.4,0.2c0,0.1,0.1,0.5,0.1,1v12.9c0,0.9,0,1.4-0.1,1.7c0,0.3-0.4,0.4-0.9,0.4c-0.5,0-0.9,0-1.3,0
		c-0.3,0-0.4,0.1-0.4,0.2c0,0.2,0.2,0.2,0.7,0.2c0.2,0,0.5,0,0.8,0c0.3,0,1.1,0,2.4,0c0.7,0,1.4,0,2.1,0h1h0.3
		c0.4,0,0.6-0.1,0.6-0.2c0-0.2-0.1-0.3-0.4-0.3h-0.4h-0.5h-0.6c-0.4,0-0.6-0.1-0.7-0.2C277.3,477.7,277.3,477.3,277.3,476.6z
		 M291.5,460.8c-0.1,1.1-0.1,3.7-0.2,7.8c1.2-0.7,2.3-1.1,3.3-1.1c1.3,0,2.3,0.4,3,1.2c0.7,0.8,1,2,1,3.5c0,2-0.4,3.7-1.3,4.9
		c-0.6,0.9-1.6,1.3-2.9,1.3c-0.7,0-1.3-0.1-1.8-0.3c-0.5-0.2-0.8-0.5-0.8-0.8c0-0.2,0.2-0.3,0.6-0.5c0.9-0.3,1.3-0.9,1.3-1.5
		c0-0.4-0.2-0.7-0.5-1c-0.3-0.3-0.7-0.4-1.2-0.4c-0.6,0-1.1,0.2-1.4,0.5c-0.4,0.4-0.5,0.8-0.5,1.4c0,0.7,0.2,1.3,0.7,1.8
		c0.8,0.9,2.1,1.3,3.8,1.3s3.1-0.4,4.2-1.1c1.8-1.2,2.7-3,2.7-5.4c0-1.7-0.5-3.1-1.6-4.1c-1.1-1-2.6-1.5-4.4-1.5
		c-1.1,0-2.2,0.2-3.3,0.7c0.1-3.1,0.1-5,0.2-5.7h5.2c1.1,0,1.8-0.1,2.1-0.4c0.3-0.2,0.5-0.9,0.6-1.9l0.1-0.6c0-0.1,0-0.2,0-0.3
		c0-0.2-0.1-0.3-0.3-0.3c-0.2,0-0.3,0.2-0.4,0.6c-0.1,0.2-0.2,0.4-0.4,0.4c-0.2,0-0.9,0.1-2.2,0.1H296c-0.3,0-0.6,0-1,0
		s-0.8,0-0.9,0c-1.1,0-1.8,0.1-2.1,0.2C291.7,459.8,291.5,460.1,291.5,460.8z M388.9,477.5c0,0.3-0.4,0.4-0.9,0.4
		c-0.5,0-0.9,0-1.3,0c-0.3,0-0.4,0.1-0.4,0.2c0,0.2,0.2,0.2,0.7,0.2c0.2,0,0.5,0,0.8,0c0.3,0,1.1,0,2.4,0c0.7,0,1.4,0,2.1,0h1h0.3
		c0.4,0,0.6-0.1,0.6-0.2c0-0.2-0.1-0.3-0.4-0.3h-0.4H393h-0.6c-0.4,0-0.6-0.1-0.7-0.2c-0.1-0.1-0.1-0.5-0.1-1.2v-16.4
		c0-0.2,0-0.3,0-0.5v-0.5c0-0.2-0.1-0.3-0.2-0.3c-0.1,0-0.2,0.1-0.4,0.2c-0.5,0.6-1.2,1.1-2.1,1.5c-0.9,0.4-1.7,0.7-2.6,0.8
		c-0.2,0-0.3,0.1-0.3,0.2c0,0.1,0.1,0.2,0.3,0.2c0.1,0,0.2,0,0.4,0c1.1-0.1,1.7-0.1,1.8-0.1c0.2,0,0.4,0.1,0.4,0.2
		c0,0.1,0.1,0.5,0.1,1v12.9C388.9,476.7,388.9,477.3,388.9,477.5z M407.2,468.1c1-1,2.1-1.4,3.4-1.4c1,0,2,0.3,2.9,0.8
		c1.7,1,2.6,2.7,2.6,4.9c0,1.8-0.5,3.3-1.6,4.6c-1.1,1.3-2.4,1.9-3.9,1.9c-1.9,0-3.4-0.8-4.6-2.3s-1.8-3.6-1.8-6.1
		c0-2.3,0.5-4.4,1.5-6.3c1-1.9,2.3-3.3,4-4.1c1.4-0.7,2.9-1.1,4.6-1.1c0.4,0,0.6,0.1,0.6,0.2c0,0.1-0.1,0.2-0.4,0.2
		c-1.6,0.1-3.1,0.7-4.4,1.8C408.5,462.5,407.5,464.8,407.2,468.1z M407.2,472c0,2.1,0.4,3.8,1.1,5.1c0.5,0.8,1.2,1.2,2.1,1.2
		c1.9,0,2.9-2,2.9-5.9c0-3.4-1.1-5.1-3.2-5.1c-1,0-1.7,0.4-2.2,1.2C407.4,469.3,407.2,470.5,407.2,472z M503.2,477.5
		c0,0.3-0.4,0.4-0.9,0.4c-0.5,0-0.9,0-1.3,0c-0.3,0-0.4,0.1-0.4,0.2c0,0.2,0.2,0.2,0.7,0.2c0.2,0,0.5,0,0.8,0c0.3,0,1.1,0,2.4,0
		c0.7,0,1.4,0,2.1,0h1h0.3c0.4,0,0.6-0.1,0.6-0.2c0-0.2-0.1-0.3-0.4-0.3h-0.4h-0.5h-0.6c-0.4,0-0.6-0.1-0.7-0.2
		c-0.1-0.1-0.1-0.5-0.1-1.2v-16.4c0-0.2,0-0.3,0-0.5v-0.5c0-0.2-0.1-0.3-0.2-0.3c-0.1,0-0.2,0.1-0.4,0.2c-0.5,0.6-1.2,1.1-2.1,1.5
		c-0.9,0.4-1.7,0.7-2.6,0.8c-0.2,0-0.3,0.1-0.3,0.2c0,0.1,0.1,0.2,0.3,0.2c0.1,0,0.2,0,0.4,0c1.1-0.1,1.7-0.1,1.8-0.1
		c0.2,0,0.4,0.1,0.4,0.2c0,0.1,0.1,0.5,0.1,1v12.9C503.2,476.7,503.2,477.3,503.2,477.5z M530.5,459.4c0,0-0.1,0-0.3,0
		c-0.2,0-0.3,0-0.5,0h-5.7c-0.6,0-1.6,0-3-0.1c-0.6,0-1-0.1-1.1-0.1c-0.2,0.2-0.3,0.6-0.4,1.2c-0.1,0.8-0.2,1.7-0.4,2.9
		c-0.1,0.5-0.1,0.8-0.1,1.1c0,0.2,0.1,0.3,0.3,0.3c0.1,0,0.3-0.1,0.3-0.3c0.2-1.1,0.4-1.7,0.5-1.9c0.1-0.2,0.2-0.3,0.3-0.5
		c0.2-0.1,0.4-0.2,0.8-0.2c0.3,0,1.6,0,3.7,0h4.2c-1.7,2.5-3.1,4.7-4.2,6.6c-1.7,3-2.6,5.4-2.6,7.3c0,2,0.6,3,1.7,3
		c1,0,1.5-0.6,1.5-1.9c0-0.4,0-0.8-0.1-1.4c-0.3-1.6-0.4-2.6-0.4-3.1c0-1,0.2-2.1,0.7-3.1c0.4-1.1,1.3-2.5,2.4-4.4
		c2.1-3.3,3.2-5,3.2-5.1C531.4,459.5,531.1,459.4,530.5,459.4z M617.4,477.5c0,0.3-0.4,0.4-0.9,0.4c-0.5,0-0.9,0-1.3,0
		c-0.3,0-0.4,0.1-0.4,0.2c0,0.2,0.2,0.2,0.7,0.2c0.2,0,0.5,0,0.8,0c0.3,0,1.1,0,2.4,0c0.7,0,1.4,0,2.1,0h1h0.3
		c0.4,0,0.6-0.1,0.6-0.2c0-0.2-0.1-0.3-0.4-0.3H622h-0.5h-0.6c-0.4,0-0.6-0.1-0.7-0.2c-0.1-0.1-0.1-0.5-0.1-1.2v-16.4
		c0-0.2,0-0.3,0-0.5v-0.5c0-0.2-0.1-0.3-0.2-0.3c-0.1,0-0.2,0.1-0.4,0.2c-0.5,0.6-1.2,1.1-2.1,1.5c-0.9,0.4-1.7,0.7-2.6,0.8
		c-0.2,0-0.3,0.1-0.3,0.2c0,0.1,0.1,0.2,0.3,0.2c0.1,0,0.2,0,0.4,0c1.1-0.1,1.7-0.1,1.8-0.1c0.2,0,0.4,0.1,0.4,0.2
		c0,0.1,0.1,0.5,0.1,1v12.9C617.5,476.7,617.5,477.3,617.4,477.5z M644.9,473.2c0,1.8-0.8,3.3-2.3,4.4c-1,0.8-2.3,1.1-3.8,1.1
		c-1.6,0-3-0.4-4.1-1.1c-1.5-1-2.3-2.4-2.3-4.2c0-2.7,1.5-4.5,4.4-5.2v-0.1c-1.1-0.3-2-0.8-2.6-1.6c-0.6-0.7-0.9-1.6-0.9-2.6
		c0-1.4,0.5-2.6,1.5-3.5c1-0.9,2.2-1.4,3.8-1.4c1.4,0,2.5,0.3,3.4,1c1.3,1,1.9,2.2,1.9,3.7c0,1.1-0.3,2-1,2.9
		c-0.6,0.9-1.4,1.4-2.4,1.5l0,0.1C643.4,468.9,644.9,470.5,644.9,473.2z M638.7,468c0.8,0,1.4-0.3,1.7-0.9c0.4-0.8,0.6-1.9,0.6-3.3
		c0-1.6-0.3-2.8-0.9-3.6c-0.3-0.5-0.9-0.7-1.7-0.7c-1.7,0-2.6,1.4-2.6,4.3C635.9,466.7,636.9,468,638.7,468z M642.1,473.5
		c0-3.3-1.1-5-3.3-5c-1.1,0-2,0.4-2.6,1.3c-0.6,0.8-0.9,2-0.9,3.5c0,1.6,0.3,2.8,1,3.7c0.6,0.9,1.5,1.3,2.7,1.3c1,0,1.7-0.3,2.1-0.8
		C641.7,476.6,642.1,475.3,642.1,473.5z M731.7,477.5c0,0.3-0.4,0.4-0.9,0.4c-0.5,0-0.9,0-1.3,0c-0.3,0-0.4,0.1-0.4,0.2
		c0,0.2,0.2,0.2,0.7,0.2c0.2,0,0.5,0,0.8,0c0.3,0,1.1,0,2.4,0c0.7,0,1.4,0,2.1,0h1h0.3c0.4,0,0.6-0.1,0.6-0.2c0-0.2-0.1-0.3-0.4-0.3
		h-0.4h-0.5h-0.6c-0.4,0-0.6-0.1-0.7-0.2c-0.1-0.1-0.1-0.5-0.1-1.2v-16.4c0-0.2,0-0.3,0-0.5v-0.5c0-0.2-0.1-0.3-0.2-0.3
		c-0.1,0-0.2,0.1-0.4,0.2c-0.5,0.6-1.2,1.1-2.1,1.5c-0.9,0.4-1.7,0.7-2.6,0.8c-0.2,0-0.3,0.1-0.3,0.2c0,0.1,0.1,0.2,0.3,0.2
		c0.1,0,0.2,0,0.4,0c1.1-0.1,1.7-0.1,1.8-0.1c0.2,0,0.4,0.1,0.4,0.2c0,0.1,0.1,0.5,0.1,1v12.9C731.8,476.7,731.8,477.3,731.7,477.5z
		 M754.8,473.9c0.5-1.1,0.8-2.5,1-4.1c-1,1-2.1,1.4-3.4,1.4c-1.2,0-2.3-0.4-3.3-1.1c-1.4-1.1-2.2-2.6-2.2-4.7c0-1.8,0.5-3.3,1.6-4.5
		c1.1-1.2,2.4-1.9,3.9-1.9c1.9,0,3.4,0.8,4.6,2.4c1.2,1.6,1.8,3.6,1.8,6.1c0,2.4-0.6,4.6-1.7,6.5c-1.1,1.9-2.6,3.3-4.3,4
		c-1.3,0.5-2.6,0.8-3.9,0.8c-0.5,0-0.7-0.1-0.7-0.2c0-0.1,0.1-0.2,0.4-0.2C751.5,478.1,753.6,476.6,754.8,473.9z M755.8,465.7
		c0-2.1-0.4-3.7-1.2-4.9c-0.5-0.8-1.3-1.2-2.2-1.2c-1.9,0-2.8,2-2.8,5.9c0,3.4,1.1,5.1,3.2,5.1c0.9,0,1.7-0.4,2.2-1.3
		C755.6,468.4,755.8,467.3,755.8,465.7z M53.1,587.2c-0.2,0-0.4,0.4-0.5,1.1c-0.2,1.1-0.4,1.7-0.7,1.8c-0.3,0.2-0.7,0.3-1.1,0.3
		c-0.4,0-1.4,0.1-2.9,0.1c-1.8,0-3.3,0-4.6,0.1c3.2-2,5.5-3.9,6.8-5.6c1.4-1.7,2-3.6,2-5.6c0-1.8-0.6-3.3-1.8-4.5
		c-1-1-2.3-1.5-3.9-1.5c-1.6,0-2.8,0.4-3.8,1.2c-1,0.8-1.4,1.9-1.4,3.3c0,0.7,0.2,1.3,0.6,1.7c0.4,0.4,0.9,0.6,1.6,0.6
		c1.1,0,1.6-0.5,1.6-1.5c0-1.1-0.6-1.6-1.9-1.7c-0.5,0-0.7-0.2-0.7-0.5c0-0.5,0.2-1,0.7-1.5c0.6-0.6,1.4-1,2.5-1
		c1.1,0,1.9,0.4,2.5,1.1c0.8,1,1.2,2.4,1.2,4.2c0,2.7-0.8,5.1-2.5,7.2c-1,1.2-2.6,2.7-4.9,4.6c-1,0.8-1.4,1.2-1.4,1.4
		c0,0.2,0.2,0.3,0.7,0.3c-0.1,0,0.3,0,1.5-0.1c1.1,0,2.3-0.1,3.6-0.1c2.4,0,4.6,0,6.4,0.1l0-0.3c0.2-2.4,0.3-3.9,0.4-4.5
		c0-0.2,0.1-0.4,0.1-0.4C53.3,587.3,53.2,587.2,53.1,587.2z M62.7,590.3c-1.2-1.9-1.9-4.3-1.9-7.2c0-3.4,0.9-6,2.6-8
		c1-1.2,2.3-1.8,3.8-1.8c1.8,0,3.2,0.8,4.3,2.4c1.3,2,2,4.6,2,7.7c0,1.6-0.2,3.2-0.7,4.6s-1.1,2.6-2,3.5c-0.9,1-2,1.4-3.4,1.4
		C65.5,593.1,63.9,592.1,62.7,590.3z M63.8,583c0,6.4,1.2,9.6,3.6,9.6c1.1,0,1.9-0.9,2.4-2.8c0.5-1.7,0.7-4.1,0.7-7.2
		c0-2.7-0.3-5-0.9-6.7c-0.5-1.4-1.3-2-2.4-2C65,573.8,63.8,576.8,63.8,583z M167.3,587.2c-0.2,0-0.4,0.4-0.5,1.1
		c-0.2,1.1-0.4,1.7-0.7,1.8c-0.3,0.2-0.7,0.3-1.1,0.3c-0.4,0-1.4,0.1-2.9,0.1c-1.8,0-3.3,0-4.6,0.1c3.2-2,5.5-3.9,6.8-5.6
		c1.4-1.7,2-3.6,2-5.6c0-1.8-0.6-3.3-1.8-4.5c-1-1-2.3-1.5-3.9-1.5c-1.6,0-2.8,0.4-3.8,1.2c-1,0.8-1.4,1.9-1.4,3.3
		c0,0.7,0.2,1.3,0.6,1.7c0.4,0.4,0.9,0.6,1.6,0.6c1.1,0,1.6-0.5,1.6-1.5c0-1.1-0.6-1.6-1.9-1.7c-0.5,0-0.7-0.2-0.7-0.5
		c0-0.5,0.2-1,0.7-1.5c0.6-0.6,1.4-1,2.5-1c1.1,0,1.9,0.4,2.5,1.1c0.8,1,1.2,2.4,1.2,4.2c0,2.7-0.8,5.1-2.5,7.2
		c-1,1.2-2.6,2.7-4.9,4.6c-1,0.8-1.4,1.2-1.4,1.4c0,0.2,0.2,0.3,0.7,0.3c-0.1,0,0.3,0,1.5-0.1c1.1,0,2.3-0.1,3.6-0.1
		c2.4,0,4.6,0,6.4,0.1l0-0.3c0.2-2.4,0.3-3.9,0.4-4.5c0-0.2,0.1-0.4,0.1-0.4C167.6,587.3,167.5,587.2,167.3,587.2z M183.1,574v-0.5
		c0-0.2-0.1-0.3-0.2-0.3c-0.1,0-0.2,0.1-0.4,0.2c-0.5,0.6-1.2,1.1-2.1,1.5c-0.9,0.4-1.7,0.7-2.6,0.8c-0.2,0-0.3,0.1-0.3,0.2
		c0,0.1,0.1,0.2,0.3,0.2c0.1,0,0.2,0,0.4,0c1.1-0.1,1.7-0.1,1.8-0.1c0.2,0,0.4,0.1,0.4,0.2c0,0.1,0.1,0.5,0.1,1v12.9
		c0,0.9,0,1.4-0.1,1.7c0,0.3-0.4,0.4-0.9,0.4c-0.5,0-0.9,0-1.3,0c-0.3,0-0.4,0.1-0.4,0.2c0,0.2,0.2,0.2,0.7,0.2c0.2,0,0.5,0,0.8,0
		c0.3,0,1.1,0,2.4,0c0.7,0,1.4,0,2.1,0h1h0.3c0.4,0,0.6-0.1,0.6-0.2c0-0.2-0.1-0.3-0.4-0.3H185h-0.5h-0.6c-0.4,0-0.6-0.1-0.7-0.2
		c-0.1-0.1-0.1-0.5-0.1-1.2v-16.4C183.1,574.3,183.1,574.1,183.1,574z M281.6,587.2c-0.2,0-0.4,0.4-0.5,1.1
		c-0.2,1.1-0.4,1.7-0.7,1.8c-0.3,0.2-0.7,0.3-1.1,0.3c-0.4,0-1.4,0.1-2.9,0.1c-1.8,0-3.3,0-4.6,0.1c3.2-2,5.5-3.9,6.8-5.6
		c1.4-1.7,2-3.6,2-5.6c0-1.8-0.6-3.3-1.8-4.5c-1-1-2.3-1.5-3.9-1.5c-1.6,0-2.8,0.4-3.8,1.2c-1,0.8-1.4,1.9-1.4,3.3
		c0,0.7,0.2,1.3,0.6,1.7c0.4,0.4,0.9,0.6,1.6,0.6c1.1,0,1.6-0.5,1.6-1.5c0-1.1-0.6-1.6-1.9-1.7c-0.5,0-0.7-0.2-0.7-0.5
		c0-0.5,0.2-1,0.7-1.5c0.6-0.6,1.4-1,2.5-1c1.1,0,1.9,0.4,2.5,1.1c0.8,1,1.2,2.4,1.2,4.2c0,2.7-0.8,5.1-2.5,7.2
		c-1,1.2-2.6,2.7-4.9,4.6c-1,0.8-1.4,1.2-1.4,1.4c0,0.2,0.2,0.3,0.7,0.3c-0.1,0,0.3,0,1.5-0.1c1.1,0,2.3-0.1,3.6-0.1
		c2.4,0,4.6,0,6.4,0.1l0-0.3c0.2-2.4,0.3-3.9,0.4-4.5c0-0.2,0.1-0.4,0.1-0.4C281.9,587.3,281.8,587.2,281.6,587.2z M301.7,587.2
		c-0.2,0-0.4,0.4-0.5,1.1c-0.2,1.1-0.4,1.7-0.7,1.8c-0.3,0.2-0.7,0.3-1.1,0.3c-0.4,0-1.4,0.1-2.9,0.1c-1.8,0-3.3,0-4.6,0.1
		c3.2-2,5.5-3.9,6.8-5.6c1.4-1.7,2-3.6,2-5.6c0-1.8-0.6-3.3-1.8-4.5c-1-1-2.3-1.5-3.9-1.5c-1.6,0-2.8,0.4-3.8,1.2
		c-1,0.8-1.4,1.9-1.4,3.3c0,0.7,0.2,1.3,0.6,1.7c0.4,0.4,0.9,0.6,1.6,0.6c1.1,0,1.6-0.5,1.6-1.5c0-1.1-0.6-1.6-1.9-1.7
		c-0.5,0-0.7-0.2-0.7-0.5c0-0.5,0.2-1,0.7-1.5c0.6-0.6,1.4-1,2.5-1c1.1,0,1.9,0.4,2.5,1.1c0.8,1,1.2,2.4,1.2,4.2
		c0,2.7-0.8,5.1-2.5,7.2c-1,1.2-2.6,2.7-4.9,4.6c-1,0.8-1.4,1.2-1.4,1.4c0,0.2,0.2,0.3,0.7,0.3c-0.1,0,0.3,0,1.5-0.1
		c1.1,0,2.3-0.1,3.6-0.1c2.4,0,4.6,0,6.4,0.1l0-0.3c0.2-2.4,0.3-3.9,0.4-4.5c0-0.2,0.1-0.4,0.1-0.4
		C302,587.3,301.9,587.2,301.7,587.2z M395.9,587.2c-0.2,0-0.4,0.4-0.5,1.1c-0.2,1.1-0.4,1.7-0.7,1.8c-0.3,0.2-0.7,0.3-1.1,0.3
		c-0.4,0-1.4,0.1-2.9,0.1c-1.8,0-3.3,0-4.6,0.1c3.2-2,5.5-3.9,6.8-5.6c1.4-1.7,2-3.6,2-5.6c0-1.8-0.6-3.3-1.8-4.5
		c-1-1-2.3-1.5-3.9-1.5c-1.6,0-2.8,0.4-3.8,1.2c-1,0.8-1.4,1.9-1.4,3.3c0,0.7,0.2,1.3,0.6,1.7c0.4,0.4,0.9,0.6,1.6,0.6
		c1.1,0,1.6-0.5,1.6-1.5c0-1.1-0.6-1.6-1.9-1.7c-0.5,0-0.7-0.2-0.7-0.5c0-0.5,0.2-1,0.7-1.5c0.6-0.6,1.4-1,2.5-1
		c1.1,0,1.9,0.4,2.5,1.1c0.8,1,1.2,2.4,1.2,4.2c0,2.7-0.8,5.1-2.5,7.2c-1,1.2-2.6,2.7-4.9,4.6c-1,0.8-1.4,1.2-1.4,1.4
		c0,0.2,0.2,0.3,0.7,0.3c-0.1,0,0.3,0,1.5-0.1c1.1,0,2.3-0.1,3.6-0.1c2.4,0,4.6,0,6.4,0.1l0-0.3c0.2-2.4,0.3-3.9,0.4-4.5
		c0-0.2,0.1-0.4,0.1-0.4C396.2,587.3,396.1,587.2,395.9,587.2z M406.5,591.2c0.9-0.4,1.3-0.9,1.3-1.5c0-0.4-0.2-0.8-0.5-1
		c-0.3-0.3-0.7-0.4-1.2-0.4c-0.6,0-1.1,0.2-1.4,0.5c-0.4,0.3-0.5,0.8-0.5,1.4c0,0.7,0.3,1.2,0.8,1.8c0.8,0.8,2.1,1.2,3.8,1.2
		c2.1,0,3.8-0.6,5.2-1.8c1.2-1.1,1.8-2.4,1.8-3.9c0-1.7-0.7-3.1-2.1-4c-0.9-0.6-2.2-1-3.7-1v-0.2c1.2-0.2,2.1-0.4,2.7-0.7
		c1.6-0.8,2.3-2,2.3-3.6c0-1.2-0.5-2.2-1.4-3.1c-0.9-0.9-2.2-1.3-4-1.3c-1.5,0-2.7,0.3-3.6,1c-0.8,0.7-1.3,1.5-1.3,2.5
		c0,0.6,0.2,1.1,0.6,1.5c0.4,0.4,0.9,0.5,1.5,0.5c1,0,1.5-0.5,1.5-1.4c0-0.7-0.6-1.2-1.8-1.5c-0.3-0.1-0.4-0.2-0.4-0.3
		c0-0.4,0.3-0.8,0.8-1.1c0.6-0.3,1.2-0.5,2-0.5c1,0,1.8,0.4,2.4,1.1c0.6,0.7,0.9,1.6,0.9,2.8c0,1.2-0.3,2.2-1,2.9
		c-0.7,0.8-1.7,1.2-3,1.4c-0.4,0.1-0.7,0.2-0.7,0.3c0,0.2,0.1,0.2,0.4,0.2h0.2c0.1,0,0.3,0,0.6,0c2.8,0,4.2,1.5,4.2,4.6
		c0,1.5-0.4,2.8-1.3,3.7c-0.9,1-2,1.4-3.4,1.4c-0.6,0-1.1-0.1-1.6-0.3c-0.5-0.2-0.7-0.4-0.7-0.6C406,591.5,406.2,591.4,406.5,591.2z
		 M510.2,587.2c-0.2,0-0.4,0.4-0.5,1.1c-0.2,1.1-0.4,1.7-0.7,1.8c-0.3,0.2-0.7,0.3-1.1,0.3c-0.4,0-1.4,0.1-2.9,0.1
		c-1.8,0-3.3,0-4.6,0.1c3.2-2,5.5-3.9,6.8-5.6c1.4-1.7,2-3.6,2-5.6c0-1.8-0.6-3.3-1.8-4.5c-1-1-2.3-1.5-3.9-1.5
		c-1.6,0-2.8,0.4-3.8,1.2c-1,0.8-1.4,1.9-1.4,3.3c0,0.7,0.2,1.3,0.6,1.7c0.4,0.4,0.9,0.6,1.6,0.6c1.1,0,1.6-0.5,1.6-1.5
		c0-1.1-0.6-1.6-1.9-1.7c-0.5,0-0.7-0.2-0.7-0.5c0-0.5,0.2-1,0.7-1.5c0.6-0.6,1.4-1,2.5-1c1.1,0,1.9,0.4,2.5,1.1
		c0.8,1,1.2,2.4,1.2,4.2c0,2.7-0.8,5.1-2.5,7.2c-1,1.2-2.6,2.7-4.9,4.6c-1,0.8-1.4,1.2-1.4,1.4c0,0.2,0.2,0.3,0.7,0.3
		c-0.1,0,0.3,0,1.5-0.1c1.1,0,2.3-0.1,3.6-0.1c2.4,0,4.6,0,6.4,0.1l0-0.3c0.2-2.4,0.3-3.9,0.4-4.5c0-0.2,0.1-0.4,0.1-0.4
		C510.5,587.3,510.4,587.2,510.2,587.2z M530.8,589.3c0,0.2,0,0.3,0,0.4c0,0.2-0.1,0.3-0.3,0.3c-0.2,0-0.3-0.1-0.3-0.3
		c0-0.2-0.1-0.8-0.2-1.7c0-0.1-0.1-0.3-0.2-0.3c-0.2-0.1-0.7-0.2-1.5-0.2c-0.2,0-0.4,0-0.6,0v4.3c0.1,0.2,0.2,0.4,0.5,0.4
		c0.2,0.1,0.7,0.1,1.6,0.1c0.4,0,0.6,0,0.7,0.1c0,0,0,0.1,0,0.2c0,0.1-0.4,0.2-1.1,0.2c-0.7,0-2.8,0-6.1,0.1c-0.2,0-0.4,0-0.6,0
		c-0.4,0-0.5-0.1-0.5-0.3c0-0.2,0.3-0.3,0.8-0.2c0.6,0,1.2,0,1.7-0.1c0.2,0,0.4-0.1,0.4-0.3c0.1-0.2,0.1-0.5,0.1-1v-3.3
		c-0.4,0-0.8,0-1.3,0h-1.1c-0.3,0-0.5,0-0.9,0c-0.3,0-0.4,0-0.5,0l-3.5-0.1c-0.3,0-0.4-0.1-0.4-0.2c0-0.1,1.3-2,4-5.7
		c0.8-1.2,2.7-3.8,5.6-7.8c0.1-0.2,0.3-0.2,0.4-0.2c0.2,0,0.3,0.2,0.3,0.5v12.9h0.3c0.6,0,1.1,0,1.4-0.1c0.4-0.1,0.5-0.3,0.5-0.5
		c0-0.6,0-1,0-1.2c0-0.7,0.1-1,0.3-1c0.3,0,0.4,0.3,0.4,0.8v1.2v2C530.8,588.7,530.8,589.1,530.8,589.3z M525.3,577.5
		c-0.2,0.3-0.6,0.9-1.1,1.7c-0.8,1.1-2,2.8-3.6,5l-2,2.7c0.7,0,2.1,0,4.4,0c0.8,0,1.5,0,2.2,0v-1.9c0-0.9,0-2.1,0.1-3.7
		C525.3,579.4,525.3,578.1,525.3,577.5z M53.1,701.4c-0.2,0-0.4,0.4-0.5,1.1c-0.2,1.1-0.4,1.7-0.7,1.8c-0.3,0.2-0.7,0.3-1.1,0.3
		c-0.4,0-1.4,0.1-2.9,0.1c-1.8,0-3.3,0-4.6,0.1c3.2-2,5.5-3.9,6.8-5.6c1.4-1.7,2-3.6,2-5.6c0-1.8-0.6-3.3-1.8-4.5
		c-1-1-2.3-1.5-3.9-1.5c-1.6,0-2.8,0.4-3.8,1.2c-1,0.8-1.4,1.9-1.4,3.3c0,0.7,0.2,1.3,0.6,1.7c0.4,0.4,0.9,0.6,1.6,0.6
		c1.1,0,1.6-0.5,1.6-1.5c0-1.1-0.6-1.6-1.9-1.7c-0.5,0-0.7-0.2-0.7-0.5c0-0.5,0.2-1,0.7-1.5c0.6-0.6,1.4-1,2.5-1
		c1.1,0,1.9,0.4,2.5,1.1c0.8,1,1.2,2.4,1.2,4.2c0,2.7-0.8,5.1-2.5,7.2c-1,1.2-2.6,2.7-4.9,4.6c-1,0.8-1.4,1.2-1.4,1.4
		c0,0.2,0.2,0.3,0.7,0.3c-0.1,0,0.3,0,1.5-0.1c1.1,0,2.3-0.1,3.6-0.1c2.4,0,4.6,0,6.4,0.1l0-0.3c0.2-2.4,0.3-3.9,0.4-4.5
		c0-0.2,0.1-0.4,0.1-0.4C53.3,701.6,53.2,701.4,53.1,701.4z M73.4,688c0,0-0.1,0-0.3,0c-0.2,0-0.3,0-0.5,0h-5.7c-0.6,0-1.6,0-3-0.1
		c-0.6,0-1-0.1-1.1-0.1c-0.2,0.2-0.3,0.6-0.4,1.2c-0.1,0.8-0.2,1.7-0.4,2.9c-0.1,0.5-0.1,0.8-0.1,1.1c0,0.2,0.1,0.3,0.3,0.3
		c0.1,0,0.3-0.1,0.3-0.3c0.2-1.1,0.4-1.7,0.5-1.9c0.1-0.2,0.2-0.3,0.3-0.5c0.2-0.1,0.4-0.2,0.8-0.2c0.3,0,1.6,0,3.7,0H72
		c-1.7,2.5-3.1,4.7-4.2,6.6c-1.7,3-2.6,5.4-2.6,7.3c0,2,0.6,3,1.7,3c1,0,1.5-0.6,1.5-1.9c0-0.4,0-0.8-0.1-1.4
		c-0.3-1.6-0.4-2.6-0.4-3.1c0-1,0.2-2.1,0.7-3.1c0.4-1.1,1.3-2.5,2.4-4.4c2.1-3.3,3.2-5,3.2-5.1C74.2,688.1,73.9,688,73.4,688z
		 M167.3,701.4c-0.2,0-0.4,0.4-0.5,1.1c-0.2,1.1-0.4,1.7-0.7,1.8c-0.3,0.2-0.7,0.3-1.1,0.3c-0.4,0-1.4,0.1-2.9,0.1
		c-1.8,0-3.3,0-4.6,0.1c3.2-2,5.5-3.9,6.8-5.6c1.4-1.7,2-3.6,2-5.6c0-1.8-0.6-3.3-1.8-4.5c-1-1-2.3-1.5-3.9-1.5
		c-1.6,0-2.8,0.4-3.8,1.2c-1,0.8-1.4,1.9-1.4,3.3c0,0.7,0.2,1.3,0.6,1.7c0.4,0.4,0.9,0.6,1.6,0.6c1.1,0,1.6-0.5,1.6-1.5
		c0-1.1-0.6-1.6-1.9-1.7c-0.5,0-0.7-0.2-0.7-0.5c0-0.5,0.2-1,0.7-1.5c0.6-0.6,1.4-1,2.5-1c1.1,0,1.9,0.4,2.5,1.1
		c0.8,1,1.2,2.4,1.2,4.2c0,2.7-0.8,5.1-2.5,7.2c-1,1.2-2.6,2.7-4.9,4.6c-1,0.8-1.4,1.2-1.4,1.4c0,0.2,0.2,0.3,0.7,0.3
		c-0.1,0,0.3,0,1.5-0.1c1.1,0,2.3-0.1,3.6-0.1c2.4,0,4.6,0,6.4,0.1l0-0.3c0.2-2.4,0.3-3.9,0.4-4.5c0-0.2,0.1-0.4,0.1-0.4
		C167.6,701.6,167.5,701.4,167.3,701.4z M187.7,701.8c0,1.8-0.8,3.3-2.3,4.4c-1,0.8-2.3,1.1-3.8,1.1c-1.6,0-3-0.4-4.1-1.1
		c-1.5-1-2.3-2.4-2.3-4.2c0-2.7,1.5-4.5,4.4-5.2v-0.1c-1.1-0.3-2-0.8-2.6-1.6c-0.6-0.7-0.9-1.6-0.9-2.6c0-1.4,0.5-2.6,1.5-3.5
		c1-0.9,2.2-1.4,3.8-1.4c1.4,0,2.5,0.3,3.4,1c1.3,1,1.9,2.2,1.9,3.7c0,1.1-0.3,2-1,2.9c-0.6,0.9-1.4,1.4-2.4,1.5l0,0.1
		C186.3,697.5,187.7,699.1,187.7,701.8z M181.6,696.6c0.8,0,1.4-0.3,1.7-0.9c0.4-0.8,0.6-1.9,0.6-3.3c0-1.6-0.3-2.8-0.9-3.6
		c-0.3-0.5-0.9-0.7-1.7-0.7c-1.7,0-2.6,1.4-2.6,4.3C178.8,695.2,179.7,696.6,181.6,696.6z M184.9,702.1c0-3.3-1.1-5-3.3-5
		c-1.1,0-2,0.4-2.6,1.3c-0.6,0.8-0.9,2-0.9,3.5c0,1.6,0.3,2.8,1,3.7c0.6,0.9,1.5,1.3,2.7,1.3c1,0,1.7-0.3,2.1-0.8
		C184.6,705.2,184.9,703.9,184.9,702.1z M281.6,701.4c-0.2,0-0.4,0.4-0.5,1.1c-0.2,1.1-0.4,1.7-0.7,1.8c-0.3,0.2-0.7,0.3-1.1,0.3
		c-0.4,0-1.4,0.1-2.9,0.1c-1.8,0-3.3,0-4.6,0.1c3.2-2,5.5-3.9,6.8-5.6c1.4-1.7,2-3.6,2-5.6c0-1.8-0.6-3.3-1.8-4.5
		c-1-1-2.3-1.5-3.9-1.5c-1.6,0-2.8,0.4-3.8,1.2c-1,0.8-1.4,1.9-1.4,3.3c0,0.7,0.2,1.3,0.6,1.7c0.4,0.4,0.9,0.6,1.6,0.6
		c1.1,0,1.6-0.5,1.6-1.5c0-1.1-0.6-1.6-1.9-1.7c-0.5,0-0.7-0.2-0.7-0.5c0-0.5,0.2-1,0.7-1.5c0.6-0.6,1.4-1,2.5-1
		c1.1,0,1.9,0.4,2.5,1.1c0.8,1,1.2,2.4,1.2,4.2c0,2.7-0.8,5.1-2.5,7.2c-1,1.2-2.6,2.7-4.9,4.6c-1,0.8-1.4,1.2-1.4,1.4
		c0,0.2,0.2,0.3,0.7,0.3c-0.1,0,0.3,0,1.5-0.1c1.1,0,2.3-0.1,3.6-0.1c2.4,0,4.6,0,6.4,0.1l0-0.3c0.2-2.4,0.3-3.9,0.4-4.5
		c0-0.2,0.1-0.4,0.1-0.4C281.9,701.6,281.8,701.4,281.6,701.4z M299.8,690c1.2,1.6,1.8,3.6,1.8,6.1c0,2.4-0.6,4.6-1.7,6.5
		c-1.1,1.9-2.6,3.3-4.3,4c-1.3,0.5-2.6,0.8-3.9,0.8c-0.5,0-0.7-0.1-0.7-0.2c0-0.1,0.1-0.2,0.4-0.2c3.1-0.4,5.2-1.9,6.4-4.6
		c0.5-1.1,0.8-2.5,1-4.1c-1,1-2.1,1.4-3.4,1.4c-1.2,0-2.3-0.4-3.3-1.1c-1.4-1.1-2.2-2.6-2.2-4.7c0-1.8,0.5-3.3,1.6-4.5
		c1.1-1.2,2.4-1.9,3.9-1.9C297.1,687.7,298.6,688.5,299.8,690z M298.7,694.3c0-2.1-0.4-3.7-1.2-4.9c-0.5-0.8-1.3-1.2-2.2-1.2
		c-1.9,0-2.8,2-2.8,5.9c0,3.4,1.1,5.1,3.2,5.1c0.9,0,1.7-0.4,2.2-1.3C298.4,697,298.7,695.8,298.7,694.3z M393.6,697.7
		c-0.9-0.6-2.2-1-3.7-1v-0.2c1.2-0.2,2.1-0.4,2.7-0.7c1.6-0.8,2.3-2,2.3-3.6c0-1.2-0.5-2.2-1.4-3.1c-0.9-0.9-2.2-1.3-4-1.3
		c-1.5,0-2.7,0.3-3.6,1c-0.8,0.7-1.3,1.5-1.3,2.5c0,0.6,0.2,1.1,0.6,1.5c0.4,0.4,0.9,0.5,1.5,0.5c1,0,1.5-0.5,1.5-1.4
		c0-0.7-0.6-1.2-1.8-1.5c-0.3-0.1-0.4-0.2-0.4-0.3c0-0.4,0.3-0.8,0.8-1.1c0.6-0.3,1.2-0.5,2-0.5c1,0,1.8,0.4,2.4,1.1
		c0.6,0.7,0.9,1.6,0.9,2.8c0,1.2-0.3,2.2-1,2.9c-0.7,0.8-1.7,1.2-3,1.4c-0.4,0.1-0.7,0.2-0.7,0.3c0,0.2,0.1,0.2,0.4,0.2h0.2
		c0.1,0,0.3,0,0.6,0c2.8,0,4.2,1.5,4.2,4.6c0,1.5-0.4,2.8-1.3,3.7c-0.9,1-2,1.4-3.4,1.4c-0.6,0-1.1-0.1-1.6-0.3
		c-0.5-0.2-0.7-0.4-0.7-0.6c0-0.1,0.2-0.3,0.5-0.4c0.9-0.4,1.3-0.9,1.3-1.5c0-0.4-0.2-0.8-0.5-1c-0.3-0.3-0.7-0.4-1.2-0.4
		c-0.6,0-1.1,0.2-1.4,0.5c-0.4,0.3-0.5,0.8-0.5,1.4c0,0.7,0.3,1.2,0.8,1.8c0.8,0.8,2.1,1.2,3.8,1.2c2.1,0,3.8-0.6,5.2-1.8
		c1.2-1.1,1.8-2.4,1.8-3.9C395.7,699.9,395,698.6,393.6,697.7z M414.4,690.1c1.3,2,2,4.6,2,7.7c0,1.6-0.2,3.2-0.7,4.6
		s-1.1,2.6-2,3.5c-0.9,1-2,1.4-3.4,1.4c-1.9,0-3.5-0.9-4.7-2.8c-1.2-1.9-1.9-4.3-1.9-7.2c0-3.4,0.9-6,2.6-8c1-1.2,2.3-1.8,3.8-1.8
		C411.9,687.7,413.4,688.5,414.4,690.1z M413.4,696.8c0-2.7-0.3-5-0.9-6.7c-0.5-1.4-1.3-2-2.4-2c-2.3,0-3.5,3.1-3.5,9.2
		c0,6.4,1.2,9.6,3.6,9.6c1.1,0,1.9-0.9,2.4-2.8C413.2,702.4,413.4,700,413.4,696.8z M624.5,587.2c-0.2,0-0.4,0.4-0.5,1.1
		c-0.2,1.1-0.4,1.7-0.7,1.8c-0.3,0.2-0.7,0.3-1.1,0.3c-0.4,0-1.4,0.1-2.9,0.1c-1.8,0-3.3,0-4.6,0.1c3.2-2,5.5-3.9,6.8-5.6
		c1.4-1.7,2-3.6,2-5.6c0-1.8-0.6-3.3-1.8-4.5c-1-1-2.3-1.5-3.9-1.5c-1.6,0-2.8,0.4-3.8,1.2c-1,0.8-1.4,1.9-1.4,3.3
		c0,0.7,0.2,1.3,0.6,1.7c0.4,0.4,0.9,0.6,1.6,0.6c1.1,0,1.6-0.5,1.6-1.5c0-1.1-0.6-1.6-1.9-1.7c-0.5,0-0.7-0.2-0.7-0.5
		c0-0.5,0.2-1,0.7-1.5c0.6-0.6,1.4-1,2.5-1c1.1,0,1.9,0.4,2.5,1.1c0.8,1,1.2,2.4,1.2,4.2c0,2.7-0.8,5.1-2.5,7.2
		c-1,1.2-2.6,2.7-4.9,4.6c-1,0.8-1.4,1.2-1.4,1.4c0,0.2,0.2,0.3,0.7,0.3c-0.1,0,0.3,0,1.5-0.1c1.1,0,2.3-0.1,3.6-0.1
		c2.4,0,4.6,0,6.4,0.1l0-0.3c0.2-2.4,0.3-3.9,0.4-4.5c0-0.2,0.1-0.4,0.1-0.4C624.8,587.3,624.7,587.2,624.5,587.2z M638.2,581
		c-1.1,0-2.2,0.2-3.3,0.7c0.1-3.1,0.1-5,0.2-5.7h5.2c1.1,0,1.8-0.1,2.1-0.4c0.3-0.2,0.5-0.9,0.6-1.9l0.1-0.6c0-0.1,0-0.2,0-0.3
		c0-0.2-0.1-0.3-0.3-0.3c-0.2,0-0.3,0.2-0.4,0.6c-0.1,0.2-0.2,0.4-0.4,0.4c-0.2,0-0.9,0.1-2.2,0.1h-0.9c-0.3,0-0.6,0-1,0
		c-0.4,0-0.8,0-0.9,0c-1.1,0-1.8,0.1-2.1,0.2s-0.4,0.5-0.4,1.1c-0.1,1.1-0.1,3.7-0.2,7.8c1.2-0.7,2.3-1.1,3.3-1.1
		c1.3,0,2.3,0.4,3,1.2c0.7,0.8,1,2,1,3.5c0,2-0.4,3.7-1.3,4.9c-0.6,0.9-1.6,1.3-2.9,1.3c-0.7,0-1.3-0.1-1.8-0.3
		c-0.5-0.2-0.8-0.5-0.8-0.8c0-0.2,0.2-0.3,0.6-0.5c0.9-0.3,1.3-0.9,1.3-1.5c0-0.4-0.2-0.7-0.5-1c-0.3-0.3-0.7-0.4-1.2-0.4
		c-0.6,0-1.1,0.2-1.4,0.5c-0.4,0.4-0.5,0.8-0.5,1.4c0,0.7,0.2,1.3,0.7,1.8c0.8,0.9,2.1,1.3,3.8,1.3s3.1-0.4,4.2-1.1
		c1.8-1.2,2.7-3,2.7-5.4c0-1.7-0.5-3.1-1.6-4.1C641.5,581.5,640.1,581,638.2,581z M738.8,587.2c-0.2,0-0.4,0.4-0.5,1.1
		c-0.2,1.1-0.4,1.7-0.7,1.8c-0.3,0.2-0.7,0.3-1.1,0.3c-0.4,0-1.4,0.1-2.9,0.1c-1.8,0-3.3,0-4.6,0.1c3.2-2,5.5-3.9,6.8-5.6
		c1.4-1.7,2-3.6,2-5.6c0-1.8-0.6-3.3-1.8-4.5c-1-1-2.3-1.5-3.9-1.5c-1.6,0-2.8,0.4-3.8,1.2c-1,0.8-1.4,1.9-1.4,3.3
		c0,0.7,0.2,1.3,0.6,1.7c0.4,0.4,0.9,0.6,1.6,0.6c1.1,0,1.6-0.5,1.6-1.5c0-1.1-0.6-1.6-1.9-1.7c-0.5,0-0.7-0.2-0.7-0.5
		c0-0.5,0.2-1,0.7-1.5c0.6-0.6,1.4-1,2.5-1c1.1,0,1.9,0.4,2.5,1.1c0.8,1,1.2,2.4,1.2,4.2c0,2.7-0.8,5.1-2.5,7.2
		c-1,1.2-2.6,2.7-4.9,4.6c-1,0.8-1.4,1.2-1.4,1.4c0,0.2,0.2,0.3,0.7,0.3c-0.1,0,0.3,0,1.5-0.1c1.1,0,2.3-0.1,3.6-0.1
		c2.4,0,4.6,0,6.4,0.1l0-0.3c0.2-2.4,0.3-3.9,0.4-4.5c0-0.2,0.1-0.4,0.1-0.4C739,587.3,739,587.2,738.8,587.2z M759,586.6
		c0,1.8-0.5,3.3-1.6,4.6c-1.1,1.3-2.4,1.9-3.9,1.9c-1.9,0-3.4-0.8-4.6-2.3s-1.8-3.6-1.8-6.1c0-2.3,0.5-4.4,1.5-6.3
		c1-1.9,2.3-3.3,4-4.1c1.4-0.7,2.9-1.1,4.6-1.1c0.4,0,0.6,0.1,0.6,0.2c0,0.1-0.1,0.2-0.4,0.2c-1.6,0.1-3.1,0.7-4.4,1.8
		c-1.6,1.3-2.6,3.6-2.9,6.9c1-1,2.1-1.4,3.4-1.4c1,0,2,0.3,2.9,0.8C758.1,582.8,759,584.4,759,586.6z M756.1,586.7
		c0-3.4-1.1-5.1-3.2-5.1c-1,0-1.7,0.4-2.2,1.2c-0.5,0.8-0.8,2-0.8,3.4c0,2.1,0.4,3.8,1.1,5.1c0.5,0.8,1.2,1.2,2.1,1.2
		C755.2,592.6,756.1,590.6,756.1,586.7z"/>
	<path fill="#FFFFFF" d="M724.2,206c0,0,0.3-0.2,0.8-0.5c0.6-0.3,1.4-0.8,2.5-1.3c2.2-1.1,5.6-2.5,10-3.7c4.5-1.2,10.1-2.2,16.6-2.1
		c3.2,0.1,6.7,0.5,10.3,1.4c3.5,0.9,7.2,2.5,10.5,4.8c3.3,2.3,6.4,5.4,8.7,9.1c2.4,3.7,4.2,7.9,5.3,12.4c1.2,4.5,1.8,9.2,2,14
		l0.1,1.8l0,0.9l0,0.1c0,0.1,0,0,0,0.2l0,0.2l0,0.4c-0.1,1.2-0.1,2.4-0.2,3.6c-0.1,1.2-0.3,2.5-0.5,3.8c-0.1,0.6-0.2,1.3-0.3,1.9
		l-0.5,1.8c-2.3,9.9-8.3,19.3-16.6,26c-8.3,6.8-19.2,10.5-30.1,10.7c-5.3,0-10.9-1-16-2.7c-5.1-1.8-10-4.4-14.1-7.8
		c-8.4-6.7-14.4-16-16.8-25.9c-0.7-2.4-1-5-1.3-7.4c-0.1-1.2-0.1-2.5-0.2-3.7l0-0.9l0-0.9l0.1-1.8c0.3-4.9,1.1-9.6,2.6-14
		c1.5-4.4,3.7-8.4,6.3-11.9c2.6-3.5,5.7-6.4,8.9-8.8c6.4-4.9,13.3-7.7,19.5-9.5c6.2-1.8,11.8-2.7,16.4-3.3c4.6-0.5,8.2-0.6,10.7-0.6
		c1.2,0,2.2,0,2.8,0c0.6,0,1,0,1,0s-0.3,0-1,0c-0.6,0-1.6,0-2.8,0.1c-2.5,0.1-6.1,0.4-10.6,1.1c-4.5,0.7-10,1.8-16.1,3.8
		c-3,1-6.2,2.3-9.3,3.9c-3.2,1.6-6.4,3.5-9.4,5.9c-3,2.4-5.9,5.3-8.3,8.6c-2.4,3.4-4.4,7.2-5.7,11.4c-1.3,4.2-2,8.7-2.2,13.3l0,1.8
		l0,0.8l0.1,0.9c0.1,1.2,0.1,2.3,0.2,3.5c0.4,2.3,0.6,4.7,1.3,7c1.2,4.6,3.1,9.1,5.9,13.2c2.7,4.1,6.1,7.8,10,10.9
		c3.9,3.1,8.4,5.6,13.2,7.2c4.8,1.6,9.7,2.5,14.9,2.5c10.1-0.1,20.2-3.5,28-9.8c7.8-6.3,13.5-14.9,15.8-24.2l0.5-1.7
		c0.1-0.6,0.2-1.2,0.3-1.7c0.2-1.2,0.4-2.3,0.5-3.5c0.1-1.2,0.1-2.4,0.2-3.6l0-0.4l0-0.2c0,0.1,0,0,0,0l0-0.1l0-0.9l0-1.8
		c-0.1-4.7-0.6-9.2-1.6-13.5c-1-4.3-2.6-8.3-4.8-11.8c-2.2-3.5-4.9-6.5-8-8.7c-3.1-2.2-6.5-3.8-9.9-4.8c-3.4-1-6.7-1.6-9.9-1.8
		c-6.3-0.4-11.9,0.4-16.3,1.5c-4.5,1.1-7.9,2.3-10.1,3.3c-1.1,0.5-2,0.9-2.6,1.2C724.5,205.9,724.2,206,724.2,206z"/>
</g>
</svg>
