<?xml version="1.0" encoding="utf-8"?>
<!-- Generator: Adobe Illustrator 17.1.0, SVG Export Plug-In . SVG Version: 6.00 Build 0)  -->
<!DOCTYPE svg PUBLIC "-//W3C//DTD SVG 1.1//EN" "http://www.w3.org/Graphics/SVG/1.1/DTD/svg11.dtd">
<svg version="1.1" id="Layer_1" xmlns="http://www.w3.org/2000/svg" xmlns:xlink="http://www.w3.org/1999/xlink" x="0px" y="0px"
	 viewBox="0 0 200 60" enable-background="new 0 0 200 60" xml:space="preserve">
<g>
	<g>
		<path fill="#FFFFFF" d="M31.5,20.8c0,0.2-0.1,0.3-0.4,0.3h-0.2h-3.6h-3.5c-0.1,0-0.2,0-0.4,0c-0.4,0-0.6-0.1-0.6-0.2
			c0-0.1,0.2-0.2,0.7-0.3c1-0.1,1.5-0.3,1.5-0.5c0-0.3-2.7-3.5-8.1-9.6v8.5c0,0.7,0.1,1.1,0.3,1.3c0.2,0.2,0.8,0.3,1.8,0.3
			c0.2,0,0.3,0.1,0.3,0.3c0,0.2-0.1,0.3-0.4,0.3c-0.2,0-0.4,0-0.5,0h-4.1c-0.3,0-0.6,0-0.9,0c-0.3,0-0.7,0-1.1,0h-0.3
			c-0.3,0-0.4-0.1-0.4-0.3c0-0.2,0.4-0.3,1.1-0.3c0.7,0,1.1-0.2,1.2-0.4c0.1-0.1,0.1-0.7,0.1-1.9V1.6c0-0.4-0.6-0.6-1.6-0.6
			c-0.5,0-0.7-0.1-0.7-0.3c0-0.2,0.2-0.3,0.5-0.3c0.1,0,0.2,0,0.4,0c0.3,0,1.2,0.1,2.7,0.1c1.6,0,2.5,0,3-0.1c0.2,0,0.4,0,0.7,0
			c0.4,0,0.5,0.1,0.5,0.3c0,0.1-0.1,0.2-0.2,0.2c-0.1,0-0.5,0.1-1,0.1c-0.6,0-0.9,0.1-1,0.2c-0.1,0.1-0.2,0.6-0.2,1.3v7.2l2.5-2.5
			c3.8-3.8,5.7-5.8,5.7-6c0-0.3-0.5-0.4-1.4-0.4C23.3,1,23,0.9,23,0.7c0-0.1,0.1-0.2,0.4-0.2c0.3,0,1.2,0,2.9,0h1.6
			c0.7,0,1.1,0,1.2,0c0.2,0,0.3,0.1,0.3,0.3c0,0.2-0.2,0.3-0.7,0.3c-0.9,0-1.5,0-1.8,0.1c-0.3,0.1-0.5,0.2-0.8,0.5
			C25,3,23,5,20.4,7.7l-0.8,0.8l-0.4,0.4c0.1,0.1,0.6,0.7,1.5,1.6c1.7,1.7,4,4.5,7.2,8.3c0.7,0.8,1.1,1.3,1.4,1.4
			c0.2,0.2,0.7,0.3,1.4,0.3C31.2,20.5,31.5,20.6,31.5,20.8z"/>
		<path fill="#FFFFFF" d="M73.6,20.8c0,0.2-0.1,0.3-0.4,0.3c-0.2,0-0.4,0-0.5,0l-3.8-0.1L65.1,21c-0.1,0-0.3,0-0.4,0
			c-0.4,0-0.6-0.1-0.6-0.3c0-0.2,0.3-0.3,0.8-0.3c1.7,0,2.6-0.2,2.6-0.5c0,0,0-0.1-0.1-0.2l-0.2-0.8L67,18.5c-0.2-0.6-0.6-2-1.3-4.1
			h-6.3c-1.2,3.2-1.8,5-1.8,5.5c0,0.3,0.1,0.4,0.4,0.5c0.1,0,0.6,0.1,1.5,0.1c0.6,0,0.9,0.1,0.9,0.3c0,0.2-0.3,0.3-0.8,0.3
			c-0.9,0-2,0-3.2-0.1c-0.3,0-0.6,0-0.9,0c-0.3,0-0.6,0-0.9,0.1c-0.2,0-0.3,0.1-0.4,0.1c-0.3,0-0.4-0.1-0.4-0.3
			c0-0.2,0.3-0.3,0.9-0.3c0.6,0,1.1-0.1,1.4-0.3c0.3-0.2,0.5-0.5,0.7-1c2.5-7.3,4.6-13.2,6.2-17.6c0-0.2,0.1-0.5,0.3-0.8l0.1-0.5
			C63.3,0.1,63.4,0,63.5,0c0.1,0,0.1,0.1,0.1,0.2c0.3,0.8,0.8,2.4,1.8,4.8c0.7,1.9,2.5,6.7,5.3,14.4c0.2,0.4,0.4,0.7,0.6,0.9
			c0.2,0.1,0.8,0.2,1.5,0.2C73.3,20.5,73.6,20.6,73.6,20.8z M65.6,13.7c-0.3-0.9-0.9-2.4-1.6-4.4l-1.4-4.1c-0.8,2.2-1.8,5-3,8.5
			H65.6z"/>
		<path fill="#FFFFFF" d="M112.4,18.7c0,0.5,0,1.4-0.1,2.6H112c-0.1,0-0.4,0-0.9-0.1c-0.5,0-1-0.1-1.5-0.1L97.3,21
			c-0.3,0-0.5-0.1-0.5-0.3c0-0.1,0.3-0.2,0.8-0.3c0.8,0,1.2-0.1,1.3-0.3c0.1-0.1,0.2-0.5,0.2-1.1V2.4c0-0.7-0.1-1.2-0.2-1.3
			C98.8,1,98.3,1,97.4,1c-0.4,0-0.6-0.1-0.6-0.3c0-0.2,0.1-0.3,0.4-0.3h0.3c0.7,0.1,1.9,0.1,3.9,0.1c0.2,0,0.5,0,1,0
			c0.5,0,0.9,0,1.3,0h0.3c0.4,0,0.5,0.1,0.5,0.3c0,0.1-0.1,0.2-0.2,0.2c-0.1,0-0.5,0.1-1,0.1c-0.6,0-0.9,0.1-1,0.3
			c-0.1,0.2-0.2,0.7-0.2,1.6v17.5c0.5,0,1.3,0,2.2,0c2.3,0,3.9-0.1,4.9-0.4c0.9-0.2,1.6-0.7,1.9-1.3c0.3-0.7,0.5-1.5,0.6-2.6
			c0-0.3,0.1-0.4,0.3-0.4c0.2,0,0.4,0.1,0.3,0.4v0.7c0,0,0,0.1,0,0.3s0,0.3,0,0.4V18.7z"/>
		<path fill="#FFFFFF" d="M145,20.8c0,0.2-0.1,0.3-0.4,0.3h-0.3c-0.1-0.1-1.5-0.1-4-0.1c-0.5,0-1,0-1.5,0.1c-0.3,0-0.7,0-1.2,0
			c-0.3,0-0.4-0.1-0.4-0.3c0-0.2,0.3-0.2,0.8-0.3c0.8,0,1.3-0.1,1.4-0.3c0.1-0.2,0.2-0.7,0.2-1.7V2.8c0-1-0.1-1.5-0.2-1.6
			c-0.1-0.2-0.7-0.3-1.7-0.4c-0.4,0-0.6-0.1-0.6-0.2c0-0.2,0.1-0.2,0.4-0.2h4c0.3,0,0.9,0,1.7,0l1.1,0c0.3,0,0.5,0.1,0.5,0.3
			c0,0.1-0.4,0.2-1.3,0.3c-0.5,0-0.8,0.1-0.9,0.3c-0.1,0.2-0.2,0.6-0.2,1.2v15.8c0,1.1,0,1.7,0.1,1.8c0.2,0.2,0.9,0.3,1.9,0.4
			C144.9,20.5,145,20.6,145,20.8z"/>
		<path fill="#FFFFFF" d="M188.6,0.7c0,0.2-0.2,0.3-0.7,0.3h-0.7h-0.5c-0.3,0-0.5,0.1-0.6,0.2c-0.1,0.1-0.1,0.4-0.1,1v17.1
			c0,1,0,1.7,0,1.8c0,0.2-0.1,0.3-0.2,0.3c-0.1,0-0.3-0.1-0.4-0.3l-3.8-5.6c-2.2-3.2-4.9-7.3-8-12.1v16.6c0,0.3,0.2,0.4,0.4,0.5
			c0.3,0.1,0.9,0.1,2,0.1c0.3,0,0.4,0.1,0.4,0.2c0,0.2-0.3,0.3-0.8,0.3c-0.2,0-0.7,0-1.7-0.1c-0.3,0-0.6,0-0.9,0c0,0-0.2,0-0.5,0.1
			c-0.4,0-0.9,0.1-1.7,0.1h-0.3c-0.5,0-0.7-0.1-0.7-0.3c0-0.2,0.2-0.3,0.6-0.3c1.2,0,1.8-0.1,2-0.2c0.2-0.1,0.3-0.6,0.3-1.3V4.4
			c0-1.6-0.3-2.7-1-3.1c-0.3-0.2-0.9-0.3-1.7-0.3c-0.5,0-0.8-0.1-0.8-0.3c0-0.2,0.1-0.3,0.4-0.3c0.4,0,0.9,0,1.5,0.1
			c0.6,0,0.9,0.1,1,0.1c0.1,0,0.3,0,0.8,0c0.7,0,1.3,0,1.9-0.1l10.2,15.3V2.5c0-0.6,0-1,0-1.1c0-0.1-0.1-0.2-0.2-0.3
			c-0.1-0.1-0.6-0.1-1.4-0.1c-0.7,0-1.1-0.1-1.1-0.3c0-0.2,0.2-0.3,0.7-0.3h1c0.3,0,0.5,0,0.8,0c0.3,0,0.5,0,0.6,0c0,0,0.2,0,0.5,0
			c0.3,0,0.6,0,0.9,0h0.9C188.4,0.4,188.6,0.5,188.6,0.7z"/>
	</g>
	<g>
		<path fill="#FFFFFF" d="M31.8,47.2c0,0.1-0.1,0.2-0.2,0.2c-0.1,0-0.6,0-1.4,0.1c-0.6,0-1,0.1-1.2,0.2c-0.2,0.1-0.3,0.4-0.4,0.9
			c-0.5,2.5-1.3,4.7-2.6,6.7c0.4,0.6,0.7,1.1,0.9,1.5c0.5,0.9,0.9,1.5,1.4,1.8c0.4,0.2,1.3,0.4,2.7,0.4c0.4,0,0.6,0.1,0.6,0.3
			c0,0.2-0.1,0.2-0.4,0.2c-0.5,0-1.4,0-2.7-0.1c-0.5,0-0.8,0-0.9,0c-0.7,0-1.4,0-2.1,0.1c-0.1-0.2-0.4-0.8-1-1.9l-0.1-0.2
			C22.7,59.2,20.6,60,18,60c-2,0-3.6-0.5-4.8-1.6c-1.2-1-1.8-2.4-1.8-4.1c0-2.8,1.7-5,5.2-6.6c0-0.1-0.2-0.2-0.4-0.4
			c-1-1-1.6-1.8-1.9-2.2c-0.2-0.4-0.4-1-0.4-1.7c0-1.4,0.5-2.5,1.4-3.4c0.9-0.9,2.1-1.3,3.6-1.3c1.4,0,2.5,0.4,3.4,1.1
			c0.9,0.7,1.3,1.7,1.3,2.8c0,1.9-1.4,3.4-4.1,4.5c0.1,0.1,0.6,0.7,1.5,1.7c1.7,2,3.3,4,4.6,5.9c1.4-2.3,2.1-4.4,2.1-6.3
			c0-0.4-0.1-0.7-0.3-0.8c-0.2-0.1-0.8-0.1-1.9-0.1c-0.6,0-0.9-0.1-0.9-0.3c0-0.2,0.2-0.2,0.5-0.2H30c0.9,0,1.4,0,1.5,0
			C31.7,47.1,31.8,47.1,31.8,47.2z M23.9,56.9c-1.2-2.1-3.5-5-6.9-8.8c-1,0.7-1.7,1.5-2.1,2.3c-0.4,0.8-0.6,1.7-0.6,2.8
			c0,1.7,0.5,3.1,1.4,4.2c0.9,1.1,2.1,1.7,3.5,1.7C21,59,22.5,58.3,23.9,56.9z M21.4,42.9c0-1.1-0.2-2-0.7-2.7s-1.1-1-1.9-1
			c-0.8,0-1.4,0.3-2,0.8s-0.8,1.2-0.8,2c0,1.5,1.1,3,3.2,4.8C20.7,45.9,21.4,44.7,21.4,42.9z"/>
		<path fill="#FFFFFF" d="M73.3,39.3c0,0.2-0.2,0.3-0.7,0.3h-0.7h-0.5c-0.3,0-0.5,0.1-0.6,0.2c-0.1,0.1-0.1,0.4-0.1,1v17.1
			c0,1,0,1.7,0,1.8c0,0.2-0.1,0.3-0.2,0.3c-0.1,0-0.3-0.1-0.4-0.3L66.3,54c-2.2-3.2-4.9-7.3-8-12.1v16.6c0,0.3,0.2,0.4,0.5,0.5
			c0.3,0.1,0.9,0.1,2,0.1c0.3,0,0.4,0.1,0.4,0.2c0,0.2-0.3,0.3-0.8,0.3c-0.2,0-0.7,0-1.7-0.1c-0.3,0-0.6,0-0.9,0c0,0-0.2,0-0.5,0.1
			c-0.4,0-0.9,0.1-1.7,0.1h-0.3c-0.5,0-0.7-0.1-0.7-0.3c0-0.2,0.2-0.3,0.6-0.3c1.2,0,1.8-0.1,2-0.2c0.2-0.1,0.3-0.6,0.3-1.3V43
			c0-1.6-0.3-2.7-1-3.1c-0.3-0.2-0.9-0.3-1.7-0.3c-0.5,0-0.8-0.1-0.8-0.3c0-0.2,0.1-0.3,0.4-0.3c0.4,0,0.9,0,1.5,0.1
			c0.6,0,0.9,0.1,1,0.1c0.1,0,0.3,0,0.8,0c0.7,0,1.3,0,1.9-0.1l10.2,15.3V41.1c0-0.6,0-1,0-1.1c0-0.1-0.1-0.2-0.2-0.3
			c-0.1-0.1-0.6-0.1-1.4-0.1c-0.7,0-1.1-0.1-1.1-0.3c0-0.2,0.2-0.3,0.7-0.3h1c0.3,0,0.5,0,0.8,0c0.3,0,0.5,0,0.6,0c0,0,0.2,0,0.5,0
			c0.3,0,0.6,0,0.9,0h0.9C73.1,39,73.3,39.1,73.3,39.3z"/>
		<path fill="#FFFFFF" d="M113.9,49.4c0,2.9-0.9,5.4-2.7,7.5c-1.8,2-3.9,3.1-6.5,3.1c-2.7,0-5-1-6.9-3.1c-1.9-2.1-2.8-4.6-2.8-7.6
			c0-3.1,0.9-5.6,2.7-7.6c1.8-2,4.1-3,6.9-3c2.6,0,4.8,1,6.6,3.1C113,43.8,113.9,46.4,113.9,49.4z M110.5,49.6
			c0-3.6-0.7-6.5-2.2-8.5c-0.9-1.3-2.2-1.9-3.9-1.9c-1.6,0-2.8,0.5-3.7,1.5c-1.6,1.8-2.4,4.7-2.4,8.7c0,3.2,0.6,5.7,1.7,7.4
			c1.1,1.8,2.7,2.6,4.7,2.6c1.9,0,3.3-0.8,4.2-2.5C110,55.1,110.5,52.7,110.5,49.6z"/>
		<path fill="#FFFFFF" d="M151.4,58.7c0,0.8-0.7,1.2-2.1,1.2c-1.5,0-2.7-0.6-3.6-1.9c-0.4-0.6-0.6-1.1-0.7-1.6
			c-0.1-0.5-0.3-1.8-0.5-3.9c-0.1-1.3-0.5-2.2-1.2-2.7c-0.7-0.5-1.8-0.8-3.4-0.8v9.3c0,0.4,0.3,0.6,1,0.7c0.2,0,0.6,0,1.4,0.1
			c0.3,0,0.4,0.1,0.4,0.2c0,0.2-0.2,0.3-0.5,0.3h-0.4c-0.2,0-1,0-2.6,0c-0.3,0-0.8,0-1.5,0c-0.7,0-1.1,0-1.4,0h-1.2
			c-0.4,0-0.7-0.1-0.7-0.3c0-0.1,0.3-0.2,0.9-0.2c0.9,0,1.4-0.1,1.5-0.4c0.1-0.1,0.1-0.5,0.1-1.2V41.3c0-0.8-0.1-1.3-0.3-1.4
			c-0.2-0.2-0.7-0.2-1.5-0.3c-0.5,0-0.7-0.1-0.7-0.3c0-0.2,0.2-0.3,0.5-0.3c0.1,0,0.1,0,0.3,0l3.9,0.1c0.4,0,0.9,0,1.7,0
			c0.8-0.1,1.3-0.1,1.7-0.1c1.8,0,3.3,0.4,4.4,1.2c1.1,0.8,1.6,1.9,1.6,3.3c0,1.4-0.6,2.5-1.7,3.4c-1.1,0.9-2.6,1.4-4.5,1.6
			c-0.2,0-0.3,0-0.3,0.1c0,0.1,0.1,0.1,0.3,0.1c2.1,0.4,3.5,1.1,4.3,2.2c0.8,1.1,1.3,3.1,1.6,6c0.2,1.6,0.7,2.4,1.7,2.4
			c0.3,0,0.4-0.1,0.4-0.2c0,0,0,0,0-0.1c-0.1-0.2-0.1-0.4-0.1-0.5c0-0.4,0.2-0.6,0.7-0.6C151.1,58,151.4,58.2,151.4,58.7z
			 M145.2,43.9c0-2.8-1.2-4.2-3.7-4.2c-0.7,0-1.1,0.1-1.3,0.3c-0.2,0.2-0.4,0.5-0.4,1v7.5c1.9,0,3.3-0.3,4.1-1
			C144.8,46.6,145.2,45.5,145.2,43.9z"/>
		<path fill="#FFFFFF" d="M188.6,59.4c0,0.2-0.1,0.3-0.4,0.3c-0.2,0-0.4,0-0.5,0l-3.8-0.1l-3.8,0.1c-0.1,0-0.3,0-0.4,0
			c-0.4,0-0.6-0.1-0.6-0.3c0-0.2,0.3-0.3,0.8-0.3c1.7,0,2.6-0.2,2.6-0.5c0,0,0-0.1-0.1-0.2l-0.2-0.8l-0.2-0.4
			c-0.2-0.6-0.6-2-1.3-4.1h-6.3c-1.2,3.2-1.8,5-1.8,5.5c0,0.3,0.1,0.4,0.4,0.5c0.1,0,0.6,0.1,1.5,0.1c0.6,0,0.9,0.1,0.9,0.3
			c0,0.2-0.3,0.3-0.8,0.3c-0.9,0-2,0-3.2-0.1c-0.3,0-0.6,0-0.9,0c-0.3,0-0.6,0-0.9,0.1c-0.2,0-0.3,0.1-0.4,0.1
			c-0.3,0-0.4-0.1-0.4-0.3s0.3-0.3,0.9-0.3c0.6,0,1.1-0.1,1.3-0.3c0.3-0.2,0.5-0.5,0.7-1c2.5-7.3,4.6-13.2,6.2-17.6
			c0-0.2,0.1-0.5,0.3-0.8l0.1-0.5c0.1-0.2,0.1-0.3,0.2-0.3c0.1,0,0.1,0.1,0.1,0.2c0.3,0.8,0.8,2.4,1.7,4.8c0.7,1.9,2.5,6.7,5.3,14.4
			c0.2,0.4,0.4,0.7,0.6,0.9c0.2,0.1,0.8,0.2,1.5,0.2C188.3,59.2,188.6,59.3,188.6,59.4z M180.5,52.3c-0.3-0.9-0.9-2.4-1.6-4.4
			l-1.4-4.1c-0.8,2.2-1.8,5-3,8.5H180.5z"/>
	</g>
</g>
</svg>
